<?xml version="1.0" ?><svg style="enable-background:new 0 0 512 512;" version="1.1" viewBox="0 0 512 512" xml:space="preserve" xmlns="http://www.w3.org/2000/svg" xmlns:xlink="http://www.w3.org/1999/xlink"><style type="text/css">
	.st0{display:none;}
	.st1{fill:#DA1F26;}
	.st2{fill:#FFFFFF;}
</style><g class="st0" id="Layer_1"/><g id="Layer_4"><rect class="st1" height="384" width="384" x="64" y="64"/><g><path class="st2" d="M304.7,370.1c-38.1,0-76.2,0-114.2,0c-1.3-0.5-2.6-0.3-3.9-0.3c-6.5-0.2-12.7-1.6-18.9-3.4    c-6.5-1.9-12.7-4.5-18.7-7.7c-6.8-3.6-13.1-7.9-18.9-12.9c-8.4-7.2-15.2-15.6-20.8-25.1c-6.4-10.7-10.7-22.2-12.6-34.5    c-0.5-3.3-0.8-6.6-0.9-9.9c0-0.4,0-0.8-0.2-1.2c0-3.7,0-7.4,0-11.1c0.5-0.9,0.3-1.9,0.3-2.8c0.1-7.3,1.6-14.3,3.7-21.2    c3.2-10.3,7.9-19.9,14-28.7c3.8-5.6,8.4-10.6,13.3-15.3c5.8-5.5,12.2-10.1,19-14.1c6.3-3.7,13-6.7,20-8.9c6-1.9,12-3.1,18.2-3.9    c4.9-0.6,9.9-0.8,14.8-0.7c3.8,0.1,7.6,0.4,11.4,0.9c1.4,0.2,2.3-0.3,3.3-1.2c6-5.8,12.4-11.2,19.4-15.8    c11.4-7.4,23.6-12.8,36.8-16c4.2-1,8.5-1.9,12.8-2.3c2.7-0.3,5.5-0.3,8.2-0.4c0.4,0,0.9,0.1,1.3-0.1c3.7,0,7.4,0,11.1,0    c2.5,0.3,5,0.3,7.4,0.5c4.3,0.2,8.6,0.9,12.9,1.8c10.7,2.2,20.8,6,30.4,11.1c7,3.8,13.6,8.2,19.8,13.3c4.3,3.5,8.2,7.3,12,11.3    c6.4,7,11.8,14.6,16.4,22.9c3.7,6.7,6.8,13.7,9.2,21.1c1.9,6.1,3.4,12.2,4.2,18.5c0.3,2.6,0.4,5.3,0.4,8c0,0.4-0.1,0.9,0.1,1.3    c0,5.3,0,10.5,0,15.8c-0.2,2-0.3,4.1-0.3,6.1c-0.1,4.2-0.8,8.4-1.7,12.5c-2.1,9.9-5.5,19.4-10.2,28.4c-4.2,7.9-9.1,15.4-14.9,22.2    c-2.4,2.8-4.8,5.5-7.4,8.1c-7,6.8-14.6,12.7-23,17.6c-7,4.2-14.4,7.6-22.2,10.3c-6.9,2.3-13.9,4-21.1,5c-3.4,0.5-6.8,0.5-10.2,0.8    C304.9,370,304.8,370,304.7,370.1z"/><path class="st1" d="M393.6,251.7c-0.1,15.7-3.6,30.6-10.9,44.5c-4.6,8.7-10.4,16.5-17.3,23.5c-7.8,7.9-16.7,14.2-26.8,19    c-6.7,3.2-13.8,5.5-21,7.1c-3.3,0.7-6.7,1.3-10.1,1.6c-4.7,0.5-9.3,0.7-14,0.4c-2.7-0.1-5.4-0.3-8.1-0.6    c-5.3-0.6-10.6-1.7-15.8-3.2c-10.4-3-19.9-7.8-28.4-14.5c-2.2-1.8-4.3-3.6-6.3-5.6c-10.9-10.8-21.8-21.5-32.6-32.3    c-5.2-5.2-10.5-10.3-15.7-15.5c-0.7-0.7-1.4-1.4-2-2.2c-1.2-1.6-2-3.3-2.2-5.3c-0.1-1-0.1-1.9,0.1-2.8c1-4.5,3.7-7.6,8.2-8.9    c3.2-0.9,6.3-0.3,9,1.7c0.8,0.6,1.6,1.3,2.3,2c7.5,7.6,15.1,15.1,22.6,22.7c7.2,7.3,14.5,14.5,21.7,21.8    c5.4,5.4,11.4,9.9,18.2,13.3c5.2,2.6,10.7,4.6,16.4,5.8c6.1,1.3,12.2,1.9,18.4,1.9c11.3-0.1,22-2.6,32.1-7.8    c6.6-3.4,12.5-7.9,17.8-13.1c4.8-4.7,9.1-9.9,12.5-15.8c3.8-6.6,6.5-13.6,8.2-21c1.6-7,2.3-14,2-21.1c-0.4-8.4-2.2-16.4-5.6-24.1    c-5.9-13.2-14.7-24-26.5-32.4c-7.3-5.2-15.4-8.6-24.1-10.7c-3.8-0.9-7.6-1.6-11.5-1.9c-4-0.4-8.1-0.4-12.2-0.1    c-6.5,0.5-12.7,1.8-18.8,4c-5,1.8-9.8,4.2-14.3,7c-0.3,0.2-0.7,0.5-1,0.6c-0.7,0.4-1.4,0.4-2.1-0.2c-1.7-1.2-3.4-2.4-5.2-3.6    c-4-2.6-8.2-5-12.5-7.2c-1.5-0.7-1.2-0.8-0.2-1.6c11.2-9,23.8-15.2,37.7-18.7c3.6-0.9,7.2-1.5,10.9-1.9c5.6-0.6,11.3-0.7,17-0.4    c13.7,0.7,26.7,4.1,38.8,10.6c7.9,4.2,15,9.5,21.4,15.6c5.4,5.2,10.2,10.7,14.4,17c5.8,8.8,9.9,18.4,12.5,28.6    c1.1,4.3,1.9,8.7,2.4,13.2C393.4,244.8,393.7,248.3,393.6,251.7z"/><path class="st1" d="M228.8,347.5c-0.5,0-1,0.1-1.6,0.1c-10.4,0-20.8,0.1-31.3,0c-13.2-0.1-25.6-3.3-37.1-9.7    c-14.6-8.1-25.4-19.8-32.6-34.8c-3.4-7.2-5.6-14.7-6.8-22.5c-0.8-5.4-1-10.8-0.6-16.2c1.7-25.2,15.3-47.4,35.8-60.2    c6.7-4.2,13.9-7.2,21.5-9.2c3.4-0.9,6.9-1.6,10.3-2.1c4.9-0.7,9.8-1,14.7-0.7c12.7,0.7,24.4,4.6,35.1,11.4    c4.6,2.9,8.9,6.3,12.9,10c6.8,6.3,13.3,12.8,19.7,19.4c4.4,4.5,8.9,9.1,13.3,13.6c0.7,0.7,1.3,1.4,1.8,2.2c1.5,2.5,1.8,5.1,1,7.8    c-1.2,4.5-4.2,6.9-8.7,7.8c-1.8,0.3-3.5,0.3-5.2-0.3c-1.5-0.5-2.7-1.4-3.8-2.5c-1.2-1.2-2.5-2.5-3.7-3.8c-5-5-10-10-15-15    c-4.2-4.2-8.3-8.4-12.4-12.6c-7.5-7.8-16.6-12.7-27.1-15.2c-2.8-0.6-5.5-1.1-8.4-1.4c-1.7-0.1-3.4-0.2-5-0.2    c-16.3,0.3-30.1,6.5-41.3,18.4c-7.3,7.7-11.8,16.9-13.8,27.3c-0.9,4.8-1.1,9.6-0.7,14.5c1.6,18.8,12.1,34.7,26.6,43.7    c5.7,3.5,11.9,6,18.6,7.2c3.6,0.7,7.2,0.9,10.9,1c2.2,0,4.4,0,6.6,0c0.5,0,1,0,1.5,0c0.9,0,1.8,0.4,2.5,0.9c0.4,0.3,0.7,0.6,1,0.9    c6.8,6.4,13.6,12.9,20.4,19.3c0.2,0.2,0.5,0.4,0.7,0.6C228.8,347.3,228.8,347.4,228.8,347.5z"/></g></g></svg>