<svg version="1.1" id="Layer_1" xmlns="http://www.w3.org/2000/svg" xmlns:xlink="http://www.w3.org/1999/xlink" x="0px" y="0px"
	 viewBox="0 0 1318.6 829.4" style="enable-background:new 0 0 1318.6 829.4;" xml:space="preserve">
<path class="st0" d="M659,9c102.3,1.2,202.6,15.2,300.2,46.9c71.2,23.1,138.5,54.9,199.3,100.2c45.3,33.7,84.6,73.4,113.4,123.3
	c27.2,47.1,40.8,98.1,37.1,153.1c-3,46.3-18.3,88.5-42.5,127.3c-28,45.3-64.8,81.9-106.6,113.2c-67.4,50.5-142.5,84.1-222,108
	c-49.1,14.7-99.1,24.9-149.8,31.3c-53.9,6.8-108,9.3-162.3,7.5c-92.9-3.1-184-17.7-272.5-47.4c-68-22.7-132.3-53.3-190.7-96.3
	c-46.5-34.3-86.8-74.6-116.1-125.6C20.4,505,6.8,456.2,9.3,403.1c2.4-51.8,19.9-98.3,47.9-140.8c36.3-54.9,84.4-96.5,138.7-130.9
	c64.1-40.8,133.6-68.7,206.2-88.3c52.6-14.3,106.1-24,160.4-28.3C594.7,12.2,626.9,10.8,659,9z"/>
<g>
	<g>
		<path d="M659,39.5c97.8,1.1,193.6,14.1,286.9,43.4c68.1,21.4,132.4,50.8,190.5,92.7c43.3,31.2,80.9,67.9,108.4,114
			c26,43.6,39,90.7,35.5,141.6c-2.9,42.8-17.5,81.8-40.6,117.7c-26.8,41.9-61.9,75.7-101.9,104.7c-64.4,46.7-136.2,77.8-212.2,99.9
			c-46.9,13.6-94.7,23-143.2,28.9c-51.5,6.3-103.2,8.6-155.1,6.9c-88.8-2.9-175.9-16.4-260.5-43.8c-65-21-126.5-49.3-182.3-89.1
			c-44.4-31.7-83-69-111-116.2C48.6,498.2,35.6,453.1,38,404c2.3-47.9,19-90.9,45.8-130.2c34.7-50.8,80.7-89.2,132.6-121.1
			C277.7,115,344.1,89.2,413.5,71c50.3-13.2,101.4-22.2,153.3-26.2C597.5,42.5,628.3,41.2,659,39.5z M53.8,425.2
			c-0.5,0.1-1,0.2-1.6,0.2c1,5.8,1.9,11.7,3.1,17.4c2.8,13.3,5.2,26.8,8.8,39.9c6.5,23,17.7,43.9,30.9,63.5
			c15.7,23.2,33.8,44.6,54.7,63.4c23,20.7,47.4,39.4,74,55.1c18.3,10.8,37.1,21,56.2,30.4c16.7,8.2,34,15.1,51.3,22
			c12.2,4.9,24.7,9.1,37.3,12.9c23.4,6.9,46.8,14.1,70.6,19.7c23.6,5.5,47.6,9.9,71.6,13.4c27.5,4,55.1,7.6,82.8,9.3
			c29.9,1.8,59.9,1.3,89.9,1.4c14,0,28-0.2,41.9-1.5c27.3-2.6,54.6-5.6,81.8-9.4c21.6-3,43.1-6.8,64.4-11.5
			c31.4-6.9,62.4-15.3,92.6-26.4c18.7-6.9,37.6-13.5,55.8-21.8c21-9.6,41.3-20.7,61.6-31.8c22.7-12.4,43.8-27.2,63.9-43.5
			c25.8-20.9,49.1-44,68.6-70.9c16.9-23.4,30.8-48.4,39.1-76.1c3.9-13.1,6.5-26.8,8.5-40.4c1.7-11.6,2.6-23.5,2.3-35.3
			c-0.3-10.7-2.5-21.4-4.3-32.1c-5-29.8-16.7-57.1-32.5-82.7c-17-27.7-38.3-51.9-62.2-73.9c-31.8-29.1-67.3-52.7-105.3-72.7
			c-27-14.2-54.8-26.4-83.6-36.8c-28.6-10.3-57.4-19.5-86.9-26.3c-23.2-5.3-46.5-10-70-13.9c-23.1-3.9-46.4-7.5-69.8-9.4
			c-37.3-3.1-74.7-4.8-112.3-3.8c-36,1-71.8,3.5-107.5,8.2c-22.4,3-44.8,6.8-67,11.2c-19.3,3.8-38.6,7.8-57.3,13.5
			c-27.1,8.1-54,17-80.4,27c-21.6,8.2-43,17.3-63.2,28.3c-24,12.9-47.1,27.6-69.8,42.7c-24.2,16.1-45.8,35.7-65.2,57.3
			c-11.3,12.6-21.4,26.4-31.3,40.1c-5.5,7.6-10.4,15.9-14.4,24.5c-7.1,15.6-14,31.3-19.5,47.4c-3.9,11.4-5.6,23.6-7.6,35.6
			c-1.2,7-1.4,14.2-1.4,21.3C52.4,415.3,53.3,420.2,53.8,425.2z"/>
		<path d="M719.4,219.3c3.1-5.5,4.6-9.9,3.6-15.5c-5.3-28.6-10.1-57.3-15.1-86c-0.5-2.8-0.1-4.7,2.4-6.3c3.7-2.5,7.1-5.4,11.7-7.7
			c-0.2,0.9-0.1,2.3-0.7,2.8c-2.4,2-4.9,4-7.6,5.6c-3.2,1.9-3.9,4.2-3.3,7.9c4.8,27.4,9.5,54.7,14.2,82.1c0,0.3,0.3,0.5,0.8,1.5
			c0.8-1.6,1.5-2.7,2-4c10-25.9,20-51.8,30.1-77.7c1.2-3,1-5.2-0.8-7.9c-2.8-4.1-5.1-8.5-8.2-13.7c16.9,1.6,32.7,3.1,49.7,4.7
			c-4.1,4.4-7.4,8.2-11,11.7c-3,2.9-4.4,6.3-4.8,10.5c-3.6,39.8-7.3,79.6-10.9,119.4c-0.2,2.4,0.8,5.2,2,7.4c2.2,4,5.1,7.7,8.3,12.5
			c-15.2-1.4-29.3-2.8-44.9-4.3c4.6-4.2,8.3-7.4,11.8-10.8c1.4-1.4,3.1-3.4,3.3-5.2c2.6-26.2,4.9-52.3,6.5-78.8
			c-0.7,1.7-1.6,3.4-2.2,5.1c-12.2,31.5-24.4,63-36.8,94.4c-0.6,1.5-2.3,3.5-3.6,3.6c-2.5,0.2-5-0.9-8.3-1.6
			c1.3-1.4,1.4-1.6,1.5-1.6c7.7,1.5,9.3-3.8,11.5-9.4c12.8-33.7,26-67.3,38.7-101.1c2.2-5.8,2.2-12.5,3.3-18.8
			c-0.4-0.1-0.8-0.2-1.2-0.3c-0.6,1.3-1.3,2.5-1.8,3.9C745,179.4,730.3,217,716,254.8c-1.9,5.1-4.3,6-9.1,3.9
			c-5.6-33-11.3-66.2-16.9-99.5c-0.4,0-0.8,0-1.1,0c-0.6,6.4-1.3,12.9-1.8,19.3c-1.6,18.6-3.1,37.2-4.6,55.7
			c-0.5,6.6,1.6,12.4,4.8,18c2.8,5,5.2,10.3,8.2,16.3c-7.1-0.6-13.4-0.6-19.4-1.8c-17.1-3.4-33.7,0.3-50.4,2.7
			c-25.9,3.8-51.7,7.5-77.6,11.1c-1.4,0.2-2.9-0.6-4.4-1c0-0.6,0.1-1.1,0.1-1.7c6-0.9,12-1.9,18-2.8c26-3.7,52.1-7.4,78.1-11.2
			c1.4-0.2,2.5-1.8,4.7-3.5c6.8,0.4,6.8,0.4,7.5-6.1c-2-0.3-4.1-0.7-6.1-1c-0.2-0.3-0.4-0.6-0.7-0.9c1.2-0.5,2.3-1.1,2.8-1.3
			c-7.1-9.6-13.8-18.7-20.5-27.9c0.6-0.4,1.1-0.9,1.7-1.3c7,9.1,14,18.2,20.9,27.3c11.2-6.3,15.2-15.9,16.4-26.7
			c2.3-20.5,4.1-41.1,6.1-61.6c1.5-15.6,3-31.2,4.1-46.8c0.2-3-0.9-6.4-2.4-9.1c-2.2-4.1-5.1-7.7-8.5-12.6
			c17.3,1.6,33.5,3.2,50.7,4.8c-4.5,4.5-8.7,8.2-12.3,12.4c-1.5,1.7-2.7,4.7-2.4,6.9c5.4,33.2,11,66.3,16.6,99.4
			C718.6,216.5,718.8,217.3,719.4,219.3z M686.9,254.8c-6.8-8.4-8.1-18-7.2-28.1c2.4-25.5,5-51,6.9-76.5c0.5-7.3-1-14.8-1.6-22.2
			c-0.5,0-1.1,0.1-1.6,0.1c-0.3,2.8-0.7,5.6-1,8.3c-2.3,24.2-4.8,48.3-6.6,72.6c-0.8,10.7-0.9,21.6-0.3,32.3
			C675.8,247.9,680.6,252.2,686.9,254.8z M690.8,264.6c-1.4-4.1-2-7.5-6.7-7.7c-7.9-0.5-15.9-1.2-23.8-2.2c-5.1-0.7-6.4,1.6-6.1,6.5
			C666.1,262.3,678,263.4,690.8,264.6z"/>
		<path d="M914.7,314c-14.5-5.5-29.1-11-44.7-16.8c5.4-2.7,10.1-4.9,14.5-7.4c1.4-0.8,3.1-2.4,3.2-3.8c1-11.6,1.8-23.2,2.6-34.8
			c-0.4-0.4-0.8-0.7-1.2-1.1c-8.2,6.1-16.3,12.1-24.5,18.2c-0.3-0.3-0.6-0.7-0.9-1c1.2-1.1,2.2-2.4,3.5-3.4c6.7-5,13.5-9.8,20-14.9
			c1.9-1.5,2.9-4,3.5-6.7c-10.9,3.7-19.4,10.5-28,18.2c-1.7-10.9-3.2-21-4.9-32c-18.3,19.8-28.8,40.6-17.6,68.4
			c-8.1-3-14.4-5.3-20.7-7.7c-6.4-2.4-12.7-5.1-19.1-7.2c-6.6-2.1-13.3-4.1-20.1-5.3c-6.7-1.2-13.6-1.2-20.3-2.2
			c-6.4-1-13.3,0.3-19.2-3c0.1-0.7,0.2-1.3,0.3-2c15.4,1.4,30.8,2.9,47.3,4.4c-3.5-6.2-6.8-11.6-9.6-17.1c-1.2-2.4-2.1-5.3-1.9-7.9
			c2.3-26.9,4.8-53.7,7.3-80.6c1.3-13.6,2.5-27.2,3.7-40.8c0.4-4.5,8.4-13.3,12.6-13.8c0.5-0.1,1.5,0.4,1.5,0.7
			c0,0.7-0.2,1.7-0.7,2.1c-2.4,2-5.3,3.6-7.4,5.9c-1.6,1.6-3.1,3.9-3.4,6.1c-3.8,38.4-7.1,76.9-11.1,115.4c-0.9,8.3,3.1,14,6.9,20.1
			c0.5,0.8,3.3,0.7,4.8,0.3c13.9-4.1,24.9-12.6,34-23.6c7.5-9.1,14.4-18.8,21.7-28c2.7-3.3,2.3-6-0.4-8.7c-2.5-2.4-5.1-4.7-7.9-7.3
			c4.7-5.2,9.4-10.6,14.5-16.2c2,5,3.8,9.8,5.7,14.8c3.3-1.7,4.7-3.6,3-6.9c-1.3-2.7-2.4-5.5-3.3-8.3c-0.4-1.2-0.3-2.5-0.4-3.8
			c0.6-0.2,1.1-0.3,1.7-0.5c1.9,3.9,3.7,7.7,5.9,12.4c1.9-2.5,3.5-4.6,5-6.6c6.9-9.4,13.7-18.9,20.9-28.1c2.6-3.3,3.1-6.2,1.7-10
			c-1.2-3.4-2-7-3.3-11.6c14.5,5.5,28.1,10.6,42.5,16c-4.5,3.2-8.3,5.7-11.9,8.5c-1.3,1-2.8,2.7-3,4.2c-1.4,17.9-2.6,35.8-3.8,54
			c3.2,0.9,4.7,0.2,4.9-3.2c0.9-13.8,2.1-27.6,2.8-41.4c0.3-5.1,1.3-9,6.2-11.4c2.7-1.3,4.9-3.5,7.4-5.1c0.9-0.6,2-0.6,3-0.9
			c0.3,0.5,0.5,1.1,0.8,1.6c-3.5,2.5-7,5.2-10.7,7.6c-2.8,1.8-3.9,3.9-4.1,7.3c-0.6,12.1-1.7,24.2-2.6,36.4c-0.2,2.3,0,4.6,0,7.7
			c3.4-1.5,6.6-3,10-4.5c-0.5,8.7-1.1,16.8-1.6,24.8c-4.3-0.8-8.7-1.8-13-2.5c-2.9-0.4-4.5,0.8-4.7,4.2c-1.2,18.8-2.8,37.5-3.9,56.3
			c-0.2,3.1,0.8,6.5,1.9,9.5c1.5,4.2,3.6,8.2,5.4,12.2C915.4,313.3,915,313.7,914.7,314z M878.1,233.6c8.7-4,17-8.2,14.8-20.1
			c-0.1-0.8,0.2-1.6,0.3-2.5c0.8-10.7,1.5-21.3,2.3-32.4c-1,0.6-1.5,0.7-1.8,1.1c-6.7,8.7-13.3,17.4-19.8,26.2
			c-0.8,1.1-0.9,3.1-0.6,4.6C874.7,218.1,876.4,225.7,878.1,233.6z M853.5,218c-7.3,11.2-14.4,21.6-20.8,32.5
			c-4.3,7.2-5.1,15.4-2.6,23.7c0.8,2.6,1.3,5.4,2.2,8.7c-14.9-5.6-29.1-10.9-43.7-16.4c1.8,6.9,3.3,8.7,8.7,10.8
			c11.2,4.2,22.4,8.5,33.6,12.7c1.3,0.5,2.7,0.8,4.7,1.4c-0.5-2.9-0.7-5.2-1.3-7.4c-3.4-12.7-1.1-24.5,5.7-35.4
			c4.2-6.8,8.7-13.4,13.6-19.7C856.2,225.4,856.8,222.5,853.5,218z M897.5,164.4c-0.7-0.3-1.3-0.6-2-0.9c-0.8,1-1.7,1.9-2.5,2.9
			c-7.4,9.7-14.2,19.8-22.2,29c-6,6.9-8.7,13.6-4.6,22.3c1,2,1,4.5,1.4,6.8c0.9,4.8,1.8,9.7,2.7,14.7c5.2-2.6,5.4-2.6,4.5-7.3
			c-1.3-6.7-2.5-13.4-4.5-19.9c-1.1-3.5-0.5-5.9,1.6-8.6c6.9-8.8,13.8-17.6,20.2-26.7C894.5,173,895.7,168.5,897.5,164.4z"/>
		<path d="M226.5,242c0.2,1.6,1,3.3,0.6,4.7c-2.3,8.9,1.4,15.8,6.4,22.9c21.3,30.4,42,61.2,63.2,91.8c1.7,2.5,4.8,4.3,7.5,6
			c10.9,6.7,21,5.6,31.6-1.7c8.4-5.8,18-9.9,27.4-15c-4.4-3.6-8-4.2-12.8-1.4c-10.8,6.3-21.9,11.9-32.9,17.8
			c-0.3-0.4-0.6-0.8-0.6-0.8c7.6-10.8,6.9-22,1.2-33.1c-11.1-21.8-22.7-43.4-34.1-65c-6.2-11.6-12.6-23.1-18.6-34.8
			c-2-3.9-4.5-6.3-8.7-7.3c-3.8-0.9-7.4-2.5-12.3-4.1c14.8-7.9,28.6-15.3,43.7-23.4c-2.2,5.6-4,9.6-5.3,13.9c-0.4,1.5-0.1,4.1,1,5
			c30.9,25.9,61.9,51.7,92.9,77.5c0.4,0.4,1,0.5,1.5,0.8c0.4-0.3,0.8-0.6,1.1-0.9c-3-4.2-5.3-9.1-9.2-12.4
			c-25.8-21.9-51.8-43.4-77.9-65c-3-2.4-3.7-4.4-2-7.9c1.9-3.9,3.2-8.1,4.8-12.1c0.6,0.2,1.3,0.3,1.9,0.5c-0.2,1.5-0.2,3.1-0.7,4.4
			c-4,11.2-4,11.2,5,18.8c20.9,17.6,41.9,35.1,62.8,52.7c1.2,1,2.5,1.9,4.6,2.3c-3.3-6.1-6.5-12.2-9.8-18.2
			c-7.9-14.6-15.8-29.3-23.8-43.9c-6.6-12-13.5-23.8-29.8-24.6c12-6.5,24.1-12.9,36.9-19.8c-0.5,1.7-0.6,2.5-1,3.2
			c-6.9,11.6-5,23.2,0.7,34.3c10.6,20.6,21.7,41,32.7,61.6c9.3,17.3,18.6,34.5,28.3,52.4c-4.5,2.5-8.8,5.1-13.3,7
			c-1.2,0.5-3.6-0.9-5-2c-27.1-22.4-54.1-44.9-81.1-67.3c-3-2.5-6.1-5-10.2-8.3c0.6,2,0.7,2.7,1.1,3.4
			c12.8,23.3,25.4,46.8,38.6,69.9c3.9,6.7,9.7,12.3,14.2,17.8c-1.9-1.3-5.5-2.8-7.7-5.5c-5-6.2-10-12.5-13.9-19.4
			c-12-21.3-23.2-43.1-35.1-64.4c-3.1-5.5-7.6-10.1-11.5-15.1c-0.5,0.3-1,0.6-1.6,0.9c0.1,0.5,0,1.1,0.2,1.6
			c15.3,27.9,30.5,55.8,46,83.6c2.5,4.5,5.8,8.5,9,12.6c4.4,5.7,10.6,9.1,17.7,8.8c7.2-0.3,12.9,2.4,19.3,6
			c-1.4,0.9-2.4,1.8-3.6,2.4c-6.1,3.3-12.2,6.8-18.5,9.9c-21.6,10.6-39.4,26.8-59.7,39.4c-1.8,1.1-4,1.6-6.1,2.4
			c-0.2-0.5-0.5-1.1-0.7-1.6c12.7-8.7,25.3-17.4,38.9-26.6c-6.1-2.4-11.6-4.1-16.7-6.6c-3.1-1.5-6.3-3.7-8.3-6.4
			c-22.9-33-45.4-66.2-68.2-99.2c-2.3-3.4-3.4-6.7-2.8-10.7c0.5-3.7,0.7-7.5,1.1-11.3C225.4,242.2,226,242.1,226.5,242z"/>
		<path d="M1017,338.4c2.2-4.8,5.5-9.4,6.5-14.5c6.6-33.3,12.8-66.7,18.8-100.1c0.6-3.1,1.9-4.2,4.7-4.5c4.7-0.5,9.4-1.1,14.1-1.7
			c0.1,0.6,0.3,1.1,0.4,1.7c-1.2,0.5-2.4,1.2-3.7,1.4c-12.2,1.9-12.3,1.9-14.7,14c-5.2,26.9-10.3,53.9-15.5,80.9
			c-0.2,1.1-0.1,2.3-0.2,4c0.9-0.7,1.5-0.9,1.8-1.4c13.2-20.6,26.3-41.3,39.5-61.9c6.5-10.3,10.2-21,3.4-33c0.4-0.2,0.8-0.3,1.3-0.5
			c11.4,7.3,22.7,14.6,34.8,22.3c-1.3,0.4-1.8,0.7-2.3,0.7c-12.9-0.3-22.5,5.8-29.4,16c-11.6,17.1-22.8,34.5-34,51.8
			c-12.4,19.1-24.6,38.4-37.3,58.1c-4.2-2.7-8.4-5.1-12.1-8c-1-0.8-1.4-3.3-1.2-4.8c6.6-36.3,13.4-72.6,20.2-108.9
			c0.5-2.4,0.9-4.9,1.4-7.9c-0.9,0.7-1.6,0.9-1.9,1.3c-14.7,23.2-29.6,46.3-43.8,69.8c-3.9,6.4-5.4,14.2-7.5,19.8
			c-1-5.1,0.4-12,3.9-18.1c7.5-13,15.4-25.7,23.3-38.4c7.7-12.3,15.9-24.3,23.3-36.7c3.2-5.4,5.1-11.5,7.6-17.3
			c-0.5-0.3-1-0.5-1.5-0.8c-0.5,0.4-1.1,0.6-1.4,1.1c-17.5,27.9-35.1,55.8-52.5,83.8c-1.9,3.1-3.2,6.6-4.7,9.9
			c-3.4,7.6-2,14.7,1.3,22.1c2.4,5.4,3.1,11.4,4.6,17.1c-0.6,0.2-1.1,0.5-1.7,0.7c-4-2.6-8.1-5.1-12.1-7.7
			c-8-5.1-16.4-9.7-23.8-15.6c-12.6-10-27.9-13.4-42.1-19.4c-2.8-1.2-5.7-2-8.4-3.2c-1.3-0.6-2.2-2-3.3-3.1c0.3-0.4,0.6-0.8,0.9-1.3
			c15.7,5.9,31.5,11.8,48.4,18.2c-3-7.9-5.7-14.6-8.2-21.4c-0.7-2-1.4-4.2-1.3-6.3c1.3-19.4,2.7-38.8,4.1-58.6
			c6.8-1,11.9,3.6,18.9,5.8c0-10,0-19.5,0-28.9c0.6,0,1.2,0,1.8,0c0,11.1,0,22.1,0,34c-6.4-3-12-5.7-18.3-8.7
			c-0.6,7.6-1.2,14.3-1.7,21.1c-0.7,10.1-1.1,20.3-2.2,30.4c-1,9.2,4,16.6,6.8,24.7c0.3,0.8,2.1,1.3,3.3,1.5
			c8.6,0.8,16.3-1.5,22.1-8.1c5.4-6.1,10.5-12.5,15-19.3c17.4-26.6,34.4-53.5,51.7-80.2c2.9-4.5,4.4-8.6,2.7-13.9
			c-1-3.3-1.2-6.8-2-11.4c14,9,27.1,17.5,40.3,25.9c-0.1,0.4-0.2,0.7-0.3,1.1c-4.2,0.6-8.5,1.3-12.7,1.6c-2.7,0.2-4.1,1.3-4.6,4.1
			c-7.3,39.1-14.6,78.1-21.9,117.2c-0.2,0.9,0,1.9,0,2.8C1016,338,1016.5,338.2,1017,338.4z M923.3,318.9
			c3.2,10.7,3.2,10.7,10.8,15.6c8.5,5.4,17,10.9,25.4,16.3c0.5-0.3,1-0.5,1.5-0.8c-0.8-2.8-0.7-6.8-2.6-8.1
			C947.3,334.1,935.7,326.9,923.3,318.9z"/>
		<path d="M420,311.5c9.6-10.6,9.6-22.7,5.6-35c-7.3-22.6-15.2-45.1-22.9-67.6c-4.3-12.4-8.9-24.7-12.9-37.2c-1.4-4.3-3.4-7.3-7.7-9
			c-3.6-1.5-7-3.6-11.4-6c15.9-5.5,30.7-10.6,46.9-16.3c-2.9,5.1-5.4,8.9-7.3,13c-0.7,1.4-0.6,4,0.3,5.1
			c26.5,30.6,53.1,61.1,79.7,91.6c0.4,0.5,1,0.7,1.5,1.1c0.4-0.3,0.9-0.5,1.3-0.8c-2.8-5.1-4.7-10.9-8.4-15.2
			C463,209.9,441,184.9,419,159.9c-2.4-2.8-3.3-4.9-1-8.2c2.5-3.5,4.4-7.4,7.1-12.2c0.7,1.7,1.2,2.5,1.3,3.4
			c0.1,0.6-0.6,1.2-0.9,1.8c-1.9,3.8-5.8,7.8-5.3,11.3c0.5,3.6,5,6.7,7.8,10c17.2,19.9,34.5,39.8,51.7,59.6c1.3,1.5,2.6,2.9,4.7,3.8
			c-0.3-1.2-0.5-2.4-1-3.6c-7.4-21-14.7-42.1-22.1-63.1c-1.2-3.3-2.7-6.4-4-9.7c-3.5-8.8-9.5-14.8-18.7-17.3
			c-0.9-0.2-1.8-0.7-3.7-1.5c13.7-4.8,26.5-9.2,40.2-13.9c-0.7,1.5-0.8,2.3-1.3,2.8c-8,9.9-8.8,21.1-5.1,32.6
			c6.6,20.4,13.7,40.7,20.7,60.9c6.6,19.2,13.4,38.3,20.1,57.4c0.6,1.7,1.1,3.4,1.7,5.5c-4.7,1.6-8.9,3.5-13.4,4.5
			c-1.5,0.3-3.9-1.3-5.1-2.6c-17.9-20.2-35.6-40.6-53.4-60.9c-8.1-9.3-16.2-18.5-25.3-27.3c3,8.5,5.9,17.1,8.9,25.6
			c6.3,17.5,12.5,35.1,19.1,52.5c4.4,11.5,5.9,13,14.9,20.6c-0.3,0.4-0.7,0.7-1,1.1c-3.5-3.3-7.8-6.1-10.2-10
			c-4.1-6.7-7.7-14-10.4-21.4c-8.8-24.2-17-48.7-25.9-72.9c-1.6-4.3-5.4-7.9-8.1-11.8c-0.5,0.3-0.9,0.6-1.4,0.9
			c3.9,11.2,7.7,22.5,11.8,33.7c7.8,21.4,15.7,42.8,23.9,64c3.7,9.6,9.9,17,20.8,19c8.4,1.5,9.9,2.3,17.5,8.8
			c-7,2.4-13.6,4.8-20.2,7.1c-8.8,3.1-17.6,6.2-26.4,9.1c-1.6,0.5-3.5,0.1-5.2,0.1c0-0.5-0.1-1.1-0.1-1.6c15-5.2,30-10.4,45.5-15.9
			c-3.5-4-6.7-5.3-11.6-3.5C444.3,303.4,432.1,307.3,420,311.5z"/>
		<path d="M597.3,130.7c-12.1-12.8-26-7.1-40.1-4.8c2.3,16,4.6,31.5,7,47.6c5.6-0.8,10.7-1.4,15.7-2.4c1.4-0.3,2.9-2,3.5-3.4
			c2.6-6.1,4.9-12.3,8.3-18.4c2.4,16.2,4.8,32.4,7.2,48.6c-0.4,0.2-0.8,0.5-1.2,0.7c-3.6-4.4-7.4-8.7-10.8-13.2c-2-2.7-4-3.7-7.6-3
			c-7.1,1.4-14.4,2.2-22.2,3.3c3.5,23.7,6.9,46.8,10.4,70.3c2.3-0.4,4.1-0.7,6.3-1c-1.2-8.3-2.3-16.3-3.5-24.3
			c-1.8-12-3.6-24-5.4-36c-0.4-2.4-0.2-4.2,2.9-4.6c5-0.6,9.9-1.5,14.8-2c1.6-0.2,3.3,0.7,5,1.1c-0.1,0.4-0.2,0.8-0.2,1.3
			c-6.5,1-13,2-20.2,3.1c3,20.6,6,40.7,8.9,60.6c24.6-0.6,40.4-10.8,43-37.1c5.4,14.6,13.3,26.7,25.4,37.2
			c-37.1,5.3-72.8,10.4-109.8,15.8c4-5.3,7.3-9.4,10.4-13.7c0.9-1.3,2-3,1.8-4.4c-2.4-17.9-5-35.8-7.8-55.1c-5.3,3.1-9.7,5.7-15,8.9
			c0.5-1.7,0.4-3.2,1.1-3.8c2.9-2.2,5.8-4.6,9.2-5.9c3.9-1.5,5.1-3.3,2.9-7.5c-7.5,0-12.9,4.3-17.7,10c-1.3-9.4,4.6-17.2,16.5-21.5
			c-1.1-8-2.2-16.2-3.4-24.4c-1.2-8.2-2.3-16.5-3.9-24.7c-0.4-2.3-2-4.8-3.8-6.4c-3.9-3.5-8.3-6.5-13.6-10.5
			c35.1-5,69.1-9.9,103-14.8c-3.8,13.1-7.5,25.7-11.1,38.5c-2.5-3.9-5-7.9-7.6-11.8c-5-7.8-12.5-10.9-21.4-10
			c-8.8,0.8-17.5,2.3-27.2,3.6c2.9,19.7,5.7,38.8,8.5,58.3c2.5-0.5,4.2-0.8,6.3-1.2c-1.5-10.6-3-20.9-4.6-31.3
			c-0.8-5.3-1.8-10.5-2.3-15.8c-0.1-1.4,1.3-4.1,2.4-4.3c7.4-1.2,14.8-2.2,22.2-2.7C587.6,119.1,593.2,123.7,597.3,130.7z"/>
		<path d="M1051.4,403.4c15.8-7.4,30.3-14.1,45.7-21.3c-1.4,2.3-2.5,4-3.6,5.6c-7.3,11.4-11.7,23.5-7,36.9
			c4.5,12.6,12.9,22,26.6,24.5c4.7,0.8,10.4-0.1,14.9-2.1c16.5-7.3,23.9-26.1,16.9-42.7c-3.6-8.4-8.4-16.2-12.9-24.2
			c-6-10.6-9.9-21.5-6.4-33.8c5.4-19.5,26.6-36.8,45.5-37.4c11.4-0.4,21.2,3.5,28.6,11.8c5.5,6.1,10.3,13.1,14.5,20.2
			c4.3,7.2,7.6,15.1,18.9,15.2c-14.4,7.1-27.6,13.5-41.9,20.5c2.8-5.5,5.3-9.8,7.3-14.4c4.8-10.8,4.6-21.5-2.8-31.1
			c-7.1-9.1-18.3-11.7-28.7-7.2c-11.3,4.9-19.1,17.2-17,28.3c1.2,6.2,3.9,12.3,6.6,18.1c3,6.5,7.2,12.4,10.1,18.9
			c13.5,29.3-5.4,64.6-37.3,70.5c-18.6,3.4-33.1-2.9-43.9-18c-5.2-7.3-9.5-15.3-13.9-23.1C1067.4,411,1062.4,404.4,1051.4,403.4z"/>
		<path d="M127.1,315.6c0.5,1.3,1.5,2.6,1.4,3.8c-0.8,9.3,3.2,16.2,9.2,23.1c24.9,29.1,49.3,58.6,74,88c1.1,1.3,2.2,2.4,3.3,3.6
			c17.9-11.4,27.5-25.5,10.1-55.1c7.4,4.6,13.9,8.9,20.7,12.7c7,3.8,14.3,6.9,21.9,10.6c-25.5,21.4-51.2,42.9-78.2,65.5
			c0.3-5.4,0.3-9.6,0.8-13.7c0.5-3.7-0.4-6.5-2.9-9.5c-26.3-31-52.4-62.1-78.4-93.4c-2.7-3.2-5.6-4.8-9.6-5.3
			c-4.6-0.6-9.2-1.5-15.3-2.5c12.5-10.4,24.2-20.1,37-30.9c0,6.5,0.2,11.7-0.1,16.8c-0.2,4.1,1,7.2,3.6,10.4
			c27.2,32.2,54.2,64.5,81.3,96.8c0.6,0.8,1.3,1.5,2.3,2.5c1.4-0.9,2.7-1.8,4.5-3c-7-8.4-13.8-16.6-20.6-24.7
			c-20.5-24.4-40.7-48.9-61.6-72.9c-6.1-7.1-4-14.7-5.2-22.2C126,315.9,126.5,315.7,127.1,315.6z"/>
		<path d="M801.4,611.6c-0.5,0.3-1,1-1.5,1c-10.3,0.1-20.6,0-30.9,0c0.1-0.7,0.1-1.2,0.2-1.2c7.6-4,8.1-9.5,5.5-17.3
			c-4-11.7-6.9-23.9-11.2-35.9c-2.6,9.2-4.5,18.7-8,27.6c-4.7,12-4.6,22.3,6.2,30.8c0.4,0.3,0.5,0.8,1.1,1.6c-12.7,0-25.2,0-37.6,0
			c0-0.4,0-0.7,0-1.1c11,0,22.1,0,33.7,0c-1.4-3.3-2.5-4.8-6.2-4.6c-10.1,0.5-20.3,0.2-31.9,0.2c3.1-2.5,5.5-4.1,7.3-6.2
			c1.1-1.2,1.9-3.5,1.5-4.9c-6.6-24.2-13.3-48.4-20.2-72.6c-0.5-1.8-1.8-3.5-3.2-4.9c-2.2-2.2-4.8-4.1-8-6.9c12,0,22.9,0,35.4,0
			c-2.8,2.5-5.2,4.2-7,6.3c-1.2,1.4-2.4,3.9-2,5.5c5,18.5,10.2,36.8,15.4,55.2c0.2,0.6,0.5,1.1,0.7,1.7c0.5,0,1,0,1.6,0
			c0.1-3.6,1-7.4,0.2-10.7c-3.6-14.2-7.8-28.2-11.7-42.3c-1.8-6.4-1-8.1,5.7-11.1c0.1,0.3,0.4,0.8,0.4,0.8
			c-5.6,3.6-4.9,8.2-3.1,13.7c3.4,10.8,6.2,21.7,9.3,32.6c0.4,1.4,0.9,2.7,1.8,5.5c4.1-14.8,7.8-28.2,11.6-41.5
			c1.2-4.2,2.4-8.3,3.4-12.5c0.6-2.6,1.7-3.8,4.7-3.9c3.2-0.1,3.9,1.7,4.6,4.1c5.4,19.7,10.9,39.4,16.3,59.2
			c0.5,1.8,1.2,3.6,1.8,5.4c0.6-0.1,1.1-0.1,1.7-0.2c0-3.5,0.7-7.1-0.1-10.3c-4.6-17.5-9.6-35-14.4-52.4c-0.4-1.6-0.7-3.1-1.1-4.7
			c0.5-0.1,1-0.3,1.5-0.4c5.3,18.8,10.5,37.5,15.8,56.3c0.3,0,0.6,0,0.9,0.1c2.7-9.4,5.4-18.7,7.9-28.1c1.7-6.6,3.1-13.3,4.6-19.9
			c1.7-7.3,1-14-6-19.1c10.3-4.4,20.1-8.6,29.8-12.8c-5.3,10.6-11.7,20.2-15.1,30.8c-7.8,23.8-14.2,48.1-21.1,72.3
			c-1.6,5.7,1.9,10.8,9.1,14.1C800.9,610.9,801.1,611.2,801.4,611.6z M753.5,610.2c-0.4-0.6-0.6-1.5-1.2-1.9
			c-3.9-2.9-3.3-6.4-2.1-10.6c4.1-13.9,8-27.8,11.5-41.8c0.8-3.2-0.1-6.8-0.3-10.2c-0.5,0-1.1,0-1.6,0c-0.5,1.5-1,3-1.4,4.6
			c-3.8,13.9-7.6,27.9-11.5,41.8C743.9,603,743.9,603.4,753.5,610.2z"/>
		<path d="M273.5,394.5c1.7-7.9,3.4-13.8-1.5-20.7c-22.8-32.4-45-65.3-67.3-98.1c-2.3-3.4-4.9-5.5-9-6.3c-4.5-0.9-9-2.3-14.6-3.8
			c13-8.9,25.1-17.1,38.5-26.2c-0.3,6-1,10.9-0.7,15.7c0.2,3.3,0.7,7,2.5,9.6c22.6,33.4,45.4,66.6,68.1,99.9
			c2.5,3.7,5.2,6.1,9.8,6.6c3.5,0.4,7,1.6,11.5,2.8c-10.7,7.4-20.5,14.2-30.5,20.8c-3,2-4.4,3.8-2.4,7.2c1.6,2.7,0.8,4.7-1.7,6.8
			c-24.5,20.3-48.8,40.8-73.3,61.2c-1.4,1.2-3.4,1.5-5.2,2.3c-0.5-0.7-1-1.4-1.5-2c1.3-0.7,2.6-1.3,3.7-2.2
			c24-20.1,48-40.2,72.1-60.3c5.4-4.5,4.1-10.1-2.4-13c-10.2-4.5-20.2-9.4-30.2-14.3c-1.4-0.7-2.6-1.8-3.9-2.7
			c0.2-0.4,0.4-0.8,0.6-1.2C248.2,382.5,260.6,388.3,273.5,394.5z"/>
		<path d="M242.5,575.6c5.5-1.3,10.3-2.4,15-3.4c0.4-3.6-0.7-5-3.9-4.3c-2.6,0.6-5.2,1-7.9,1.4c-7.5,1.3-7.5,1.3-7.5,9.1
			c0,6.2,0.3,12.3-0.1,18.5c-0.3,5.1,0.9,9.1,5,12.2c0.9,0.7,1.5,1.7,2.8,3.2c-10.8,0-20.9,0-32.7,0c15.8-8.3,8.4-21.7,10.4-33.8
			c-3.6,0.9-6.3,1.5-8.9,2.2c-0.1-0.4-0.3-0.7-0.4-1.1c2.1-0.7,4.3-1.2,6.3-2.2c1.1-0.5,1.8-1.8,2.7-2.8c-1.2-0.5-2.4-1.6-3.5-1.5
			c-2.6,0.2-5.1,0.9-7.8,1.5c1.4-7.4,1.4-7.4,11.4-8.9c0-6.6,0-13.4,0-20.2c0-2.7-0.2-5.4,0-8c0.5-5.6,0-10.4-8.1-11.5
			c8.6-5.4,16.8-8.1,25.4-9.4c11.3-1.8,22.6-1.9,33.4,2.6c11.1,4.6,16.7,12.3,16.1,22.2c-0.6,9.1-6.2,14.8-13.7,19
			c-3.4,1.9-7.2,3.2-11.3,5c6.9,18.2,16.8,34.3,31.1,47.7c-7.7,3.8-15.3,7.6-23.3,11.6c-3.2-17.5-6.8-34.8-14.1-51.2
			c-5,1.3-9.6,2.4-14.7,3.7c0,8.7-0.1,17.3,0.1,26c0,1.6,1.3,3.3,2.5,4.6c3,3.5,6.2,6.8,9.8,10.6c-13.3,0-25.7,0-38.2,0
			c0-0.4,0-0.7,0-1.1c11,0,22.1,0,34.6,0c-3.2-3.6-5.8-6-7.8-8.9c-1.3-1.9-2.5-4.3-2.6-6.6C242.4,593,242.5,584.4,242.5,575.6z
			 M244.4,563.4c8.8-1.1,16.6-3.3,23.1-8.6c10.8-8.6,9.4-24.3-2.7-30.9c-7.4-4.1-15.3-4.3-23.2-1.6c-1.4,0.5-3,2.9-3.1,4.6
			c-0.4,5.5-0.1,11-0.1,16.5c0,6.8,0,13.5,0,20.3c0.7,0.2,1.3,0.4,2,0.6c0.7-1.5,2.1-2.9,2.1-4.4c0.2-7.7,0.1-15.3,0.1-23
			c0-11.9,0-11.9,12.2-11.2c6.1,0.3,11.6,1.7,15.3,7.2c-6.7-4.9-14.2-6.2-22.2-5.2c-1.2,0.2-3.3,1.6-3.4,2.4
			C244.3,541.1,244.4,552.1,244.4,563.4z"/>
		<path d="M679.9,612.9c-7.9,3.9-15.3,7.6-22.5,11.2c-4.5-16.8-9.1-33.9-13.8-51.2c-6.2,1.6-11,2.8-16.2,4.2c0,8.7-0.1,17.3,0.1,26
			c0,1.4,1.4,2.9,2.4,4.1c3.1,3.6,6.4,7.1,10.2,11.2c-13.3,0-25.7,0-38.2,0c0-0.4,0-0.7,0-1.1c11.1,0,22.2,0,34.7,0
			c-2.2-2.5-3.2-4.2-4.7-5.3c-5.5-4.3-7.1-9.7-6.5-16.6c0.6-6.6,0.1-13.3,0.1-19.8c5.4-1.2,10.4-2.4,15.4-3.5
			c0.3-3.8-1.1-4.9-4.4-4.2c-3.9,0.8-7.9,1-11.8,2c-1.4,0.4-3.3,2.4-3.3,3.6c-0.3,9.2-0.3,18.3,0,27.5c0,1.7,1.4,3.6,2.5,5.1
			c1.5,2,3.3,3.7,5.5,6.1c-10.7,0-20.7,0-30.7,0c0-0.3-0.1-0.8,0-0.9c7.7-4.8,8.8-12.1,7.9-20.3c-0.4-3.9-0.1-7.9-0.1-12.4
			c-3.2,0.7-5.8,1.2-8.8,1.9c1.7-4.1,9.1-0.9,8.7-7.9c-3.8,0.6-7.1,1.1-11.5,1.8c1.3-3,1.6-6.4,3.5-7.7c1.8-1.3,5-0.6,8.1-0.9
			c0-11.8,0.3-23.5-0.3-35c-0.1-2-3.9-3.9-6.2-6c18.3-9.3,37.4-13.1,57.5-5.7c11.9,4.4,17.2,12.7,15.9,23.6
			c-1.1,9.5-7.7,14.7-15.6,18.7c-2.8,1.4-5.8,2.4-9.2,3.7C655.8,583.5,665.7,599.5,679.9,612.9z M627.5,563.1
			c8.3-0.5,17.6-3.8,22.7-7.7c11.9-9,10.1-26.1-3.4-32.3c-7.1-3.3-14.6-3.4-21.9-0.8c-1.5,0.5-3.3,2.9-3.3,4.5
			c-0.3,11.1-0.2,22.3-0.1,33.5c0,1.2,1.4,2.4,2.1,3.5c0.7-1.3,1.9-2.5,1.9-3.8c0.2-7,0.1-14,0.1-21c0-14.4,0-14.4,14.7-13.2
			c5.9,0.5,9.8,2.5,13.2,7.6c-7.4-5.6-14.7-6.7-22.2-5.7c-1.4,0.2-3.6,1.8-3.7,2.7C627.4,541.3,627.5,552.1,627.5,563.1z"/>
		<path d="M630.3,744.1c3.8,2.6,7.6,5.3,11.3,7.9c-0.3,0.4-0.5,0.8-0.8,1.1c-13.2,0-26.4,0-39.6,0c0-0.4,0-0.8,0-1.2
			c11.7,0,23.3,0,35.3,0c-0.9-4-3.2-4.5-6.1-4.5c-9.7,0.1-19.3,0-29,0c0-0.5-0.1-1.1,0-1.1c9.2-4,12.3-11.6,12.3-21
			c0.1-21,0.2-42,0-63c0-1.8-1.4-3.9-2.7-5.4c-1.6-1.8-3.7-3.2-6.4-5.5c12.5,0,23.8,0,36.2,0c-3.4,2.4-6.1,4.3-9.5,6.7
			c11.7,22.8,23.4,45.7,35.1,68.5c0.6-0.2,1.2-0.3,1.8-0.5c-0.9-3.5-1.2-7.2-2.7-10.3c-9.4-18.7-19.1-37.3-28.9-56.5
			c3.5-2.4,6.9-4.7,10.3-7c0.3,0.4,0.6,0.9,1,1.3c-2.8,2.1-5.6,4.1-8.7,6.4c9.1,17.9,18.2,35.7,28,54.9c0.2-2.7,0.5-4,0.5-5.3
			c0-12,0-24,0-36c0-8.8-0.6-17.2-9.9-22.2c9.5,0,19.1,0,29,0c-0.4,0.5-0.6,1.1-1.1,1.3c-9.2,4.6-11.4,12.8-11.4,22.2
			c0,22.2,0,44.3,0,66.5c0,1.8,0,3.6,0,5.9c-4,0-7.5,0.3-10.9-0.2c-1.4-0.2-2.9-2-3.6-3.4c-10.5-20.1-20.8-40.2-31.2-60.3
			c-0.4-0.9-0.9-1.7-1.9-3.3c-0.3,1.6-0.7,2.4-0.7,3.3c0.1,14.5,0.1,29,0.3,43.5c0.1,5.6,0.9,11,4.7,15.4c0.1,0.2-0.3,0.9-0.5,1.3
			c-5.2-5.9-6.3-13-6.3-20.4c0-14.8,0.2-29.7-0.1-44.5c-0.1-3.2-1.6-6.4-2.5-9.6c-0.6,0.1-1.1,0.2-1.7,0.3c-0.1,1.6-0.3,3.1-0.3,4.7
			c0,11-0.2,22,0.1,33c0.2,8.6,0.8,17.3,1.7,25.9C622.1,738.3,624.9,742.3,630.3,744.1z"/>
		<path d="M736.5,744.8c3.2,2.5,6.3,5,9.5,7.5c-0.2,0.3-0.4,0.7-0.6,1c-13.2,0-26.5,0-39.7,0c0-0.4,0-0.8,0-1.2c11.6,0,23.2,0,35,0
			c-0.6-4.3-3.1-4.6-5.9-4.5c-9.7,0-19.3,0-29,0c0-0.5-0.1-1.1,0-1.1c9.6-4,12.4-12,12.5-21.3c0.2-21,0.3-42,0.2-63
			c0-1.4-1-3.1-2-4.2c-1.9-2-4.2-3.7-7.3-6.3c12.4,0,23.7,0,35.9,0c-3.3,2.4-6,4.4-9.1,6.7c11.7,22.9,23.4,45.6,35,68.3
			c0.6-0.2,1.2-0.3,1.9-0.5c-0.8-3.2-1-6.8-2.5-9.7c-9.1-18.1-18.5-36.1-27.7-54.2c-0.4-0.9-0.7-1.8-1.2-3.1c3.4-2.3,6.7-4.5,10-6.8
			c0.3,0.4,0.6,0.9,0.9,1.3c-2.7,2-5.4,4-8.5,6.4c9.1,17.9,18.2,35.7,27.8,54.7c0.5-2.2,0.9-3.2,0.9-4.2c-0.1-13.7-0.3-27.3-0.4-41
			c0-7.7-2.5-14-9.8-18.1c9.6,0,19.2,0,27.4,0c-3,4.3-6.9,8.9-9.5,14.1c-1.5,3.1-1.3,7.2-1.3,10.8c-0.1,21.7-0.1,43.3,0.2,65
			c0.1,4.7-1.1,6.2-6,6.3c-5.3,0.1-7.9-1.8-10.2-6.4c-9.5-19.1-19.3-37.9-29.1-56.9c-0.6-1.2-1.4-2.4-3.1-3.3c0,4.8-0.1,9.5,0,14.3
			c0.2,11.5,0,23,0.8,34.4c0.3,4.4,2.8,8.7,4.3,13c-1.6-2-4-3.7-4.7-5.9c-1.3-4.1-2.1-8.4-2.1-12.7c-0.2-15.3,0-30.6-0.2-45.9
			c0-3-1.6-6-2.4-9c-0.6,0.1-1.2,0.2-1.7,0.3c0,9-0.1,18.1,0,27.1c0.2,11.4,0.4,22.9,1.1,34.3C726,737.9,729.3,743.1,736.5,744.8z"
			/>
		<path d="M906.7,538.1c-0.2-0.2-0.7-0.7-0.9-1.2c-4-10.8-12.3-14.5-23.2-14.2c-5.3,0.2-10.5,0-15.9,0c0,12.1,0,23.2,0,34.3
			c3.5,1.3,4.8,0.1,4.7-3.3c-0.1-8.6,0-17.3,0-25.8c12.1-3.4,24.8-1,31.1,6.2c-1.2-0.4-2-0.4-2.4-0.8c-7.3-6.3-16-4.3-24.4-4.2
			c-0.8,0-2.3,1.9-2.3,2.9c-0.2,8.3-0.1,16.6-0.1,24.6c11.7,4.7,17.5-2.1,23-10.2c0,9.5,0,19,0,29.6c-1.9-2.3-3.4-3.6-4.2-5.3
			c-3-5.8-7.6-7.7-13.9-6.9c-3.6,0.5-7.3,0.1-11.3,0.1c0,14.2,0,27.9,0,41.6c4.4,0.9,4.5,0.9,4.6-3.3c0.1-9.3,0-18.7,0-28
			c0-1.8,0-3.6,0-5.8c5.8,0,11.1,0,16.4,0c0,0.4,0.1,0.8,0.1,1.2c-4.7,0-9.4,0-14.4,0c0,12.5,0,24.3,0,37.4c7.5-1,14.7-1.4,21.7-3
			c7.8-1.8,10.3-9.3,13.9-14.9c4.3,7.4,8.7,14.8,13,22.2c-26.2,0-53.2,0-80.6,0c0.7-0.7,1.2-1.6,1.9-2c7-3.5,9.1-9,8.3-16.7
			c-0.7-7.4-0.2-14.9-0.2-23.3c-4.5,1.4-8.2,2.6-11.8,3.8c-0.2-0.5-0.3-0.9-0.5-1.4c2.9-1.1,5.9-2,8.7-3.3c1.3-0.6,2.4-2,3.5-3
			c-1.6-0.5-3.3-1.7-4.6-1.3c-3.4,0.9-6.7,2.5-10.4,3.9c1.9-5.8,5.6-9.2,11.3-9.9c3-0.4,3.9-1.6,3.8-4.4c-0.1-7.7-0.2-15.3,0-23
			c0.1-3.5-0.9-6-3.8-8c-2.2-1.4-4.1-3.2-7.1-5.6c26.8,0,52.4,0,78.2,0C914.8,524.1,910.8,531.1,906.7,538.1z"/>
		<path d="M520.3,568.5c6.3,0,11.6,0,16.9,0c0,0.4,0,0.8,0,1.2c-4.9,0-9.7,0-14.8,0c0,12.3,0,24.1,0,36.3
			c15.4,0.7,29.7,0.4,35.4-17.4c4.8,8,9.2,15.5,13.7,22.9c0.3-0.1-0.1,0.1-0.5,0.1c-26.6,0-53.3,0-79.9,0c-0.4-0.5-0.8-0.9-1.3-1.4
			c1-0.4,2.1-0.8,3.1-1.3c6.6-3.3,8.6-8.6,7.9-15.9c-0.7-7.6-0.2-15.2-0.2-23.7c-4.4,1.3-7.9,2.4-11.5,3.5c-0.2-0.4-0.4-0.8-0.6-1.2
			c2.8-1.1,5.6-2,8.3-3.3c1.4-0.7,2.4-2,3.6-3c-1.5-0.5-3.2-1.8-4.5-1.4c-3.3,0.8-6.5,2.3-9.6,3.5c0.4-4.7,4.1-8.5,10.3-9.4
			c3.3-0.5,4.1-1.9,4-4.9c-0.1-7-0.4-14,0.1-21c0.3-4.9-1.2-8.3-5.3-10.8c-1.7-1-3.1-2.4-5.5-4.4c26.7,0,52.3,0,78.1,0
			c-4.1,7-8.1,14-12.1,20.9c0,0-0.4-0.1-0.4-0.4c-4.4-11.8-13.5-15.6-25.3-15c-4.8,0.2-9.5,0-14.5,0c0,12.1,0,23.2,0,34.3
			c3.6,1.3,4.8,0,4.7-3.3c-0.1-8.6,0-17.3,0-26.6c11,0.1,22-3,30.6,6.6c-7.2-5.7-15.6-4.9-23.9-5c-3.6,0-5.1,1-5,4.8
			c0.2,7.8,0.1,15.6,0.1,23.1c11.4,4.1,17.7-1.4,22.9-10.3c0,9.4,0,18.9,0,29.4c-2.6-3.3-4.7-6.2-7-8.9c-1-1.2-2.4-2.8-3.7-2.8
			c-6.1-0.3-12.2-0.1-18.6-0.1c0,14.3,0,28.1,0,41.9c3.4,1.2,4.7,0,4.7-3.3c-0.1-9.3,0-18.7,0-28
			C520.3,572.4,520.3,570.4,520.3,568.5z"/>
		<path d="M414.5,521.8c-0.4,0.6-0.6,1.6-1.1,1.9c-5.2,3.3-4.4,7.2-2.5,12.3c6.2,16.7,11.9,33.5,17.9,50.4c0.6-0.4,1.3-0.5,1.4-0.8
			c6.9-18.6,13.8-37.1,20.5-55.7c2.9-8.2,3.6-16.4-2.6-23c11.1-4.1,22.1-8.2,32.5-12c-1.4,1.5-3.4,3.7-5.4,5.9
			c-9.8,11.1-15.5,24.4-20.8,37.9c-7.9,20-15.4,40-23.2,60.1c-2.8,7.2-2.8,7.2,4.6,11.4c-3.6-3.3-2.2-6.6-0.8-10.3
			c9.2-23.4,17.9-46.9,27.7-70.1c3.8-8.9,9.9-16.9,15.3-25.1c1.7-2.6,4.2-4.6,6.5-7.1c0.4,1.1,0.7,1.5,0.6,1.6
			c-14.6,14.7-22.1,33.4-29.5,52.2c-6.5,16.5-12.7,33.2-19.3,49.8c-1.3,3.3-0.9,5.5,1.6,8c2.7,2.7,5,5.8,8,9.3
			c-13.3,0-25.8,0-38.4,0c0-0.3,0-0.7,0-1c11.1,0,22.2,0,33.3,0c0.2-0.7,0.4-1.4,0.6-2c-2.1-0.9-4.1-2.4-6.2-2.5
			c-10.1-0.3-20.2-0.1-30.4-0.1c0.1-0.7,0-1.2,0.1-1.3c8.1-4.2,7.5-9.9,4.5-17.6c-7.6-19.7-14.5-39.7-21.2-59.7
			c-1.8-5.5-4.5-9.9-9.1-13.2c-1.3-0.9-2.4-2.1-4.4-3.9c12.1,0,23.3,0,35.6,0c-2.8,2.9-5.3,5.1-7.3,7.7c-1,1.3-1.9,3.7-1.4,5.1
			c7.5,21.7,15.2,43.3,22.9,64.9c0.1,0.4,0.5,0.7,1,1.3c2.7-3,2.9-6,1.6-9.7c-6.1-16.7-12-33.5-18-50.3
			C405.8,527.1,405.8,527.1,414.5,521.8z"/>
		<path d="M942,611.3c4.8-9.7,9.1-18.4,13.6-27.3c0.3,0.6,0.6,1,0.7,1.4c4.7,18.3,19.7,27.1,38,22.5c8.1-2,13.3-7.1,14.1-14.3
			c0.8-8-2.6-14.5-9.6-17.7c-7.2-3.3-15.1-4.9-22.7-7.2c-3.2-1-6.5-1.5-9.6-2.6c-12.6-4.4-18.4-12.9-17.8-25.7
			c0.5-11.9,8.7-21.5,20.8-24.4c9.5-2.3,18.9-0.9,28.1,1.4c6.1,1.5,12.1,3.9,18.7-0.5c-4.1,8.7-7.7,16.5-11.7,25.2
			c-1.3-3.3-2.2-5.9-3.3-8.4c-5.4-12.5-22.6-17.1-33.4-9c-8.2,6.2-8.6,17.9,0.2,23.2c6.4,3.8,14.1,5.5,21.3,7.9
			c4.4,1.5,9.1,2.3,13.3,4c13.8,5.7,19.3,15.4,17.7,30c-1.3,11.4-11.8,21.7-24.4,23.9c-11.3,2-22.2-0.8-33-3.6
			C956.3,608.4,949.5,606.8,942,611.3z"/>
		<path d="M1116.2,538.4c-5.6-16.3-13.3-16.4-26.7-14.9c-0.1,1.6-0.3,3.4-0.3,5.1c0,22.7,0.2,45.3-0.1,68c-0.1,5.4,0.7,9.8,5.5,12.8
			c0.9,0.6,1.5,1.6,2.6,2.9c-11,0-21.2,0-32.6,0c2.7-2.4,4.9-4.1,6.9-6.2c1.2-1.2,2.7-2.9,2.7-4.4c0.2-23.8,0.1-47.6,0.1-71.6
			c-5-2.2-10.2-1.9-14,0.8c-3.4,2.3-5.3,6.9-7.4,9.8c-0.8-5.8,2.8-11.6,9.4-12.8c2.9-0.5,6-0.2,8.9-0.6c1.1-0.1,2-1.1,3-1.7
			c-0.9-0.7-1.7-2.1-2.6-2.1c-10.9-0.7-20.9-1.2-24.1,16.2c-3.4-7.7-6.6-14.9-10-22.6c29.8,0,59.3,0,89.2,0
			C1123.1,524.3,1119.7,531.4,1116.2,538.4z"/>
		<path d="M323,612.6c0.4-0.9,0.4-1.1,0.5-1.2c8.6-4.7,9.2-12.4,8.9-21.2c-0.5-18.8-0.4-37.6,0-56.5c0.1-5.5-0.9-9.7-5.7-12.7
			c-1.4-0.9-2.6-2-3.9-3c0.2-0.4,0.4-0.7,0.6-1.1c10.7,0,21.3,0,32.6,0c-1,1.3-1.6,2.5-2.5,3.2c-5.4,3.9-6.5,9.1-6.4,15.6
			c0.4,21,0.4,42,0,63c-0.1,5.8,2.5,8.7,5.9,10.8c-0.5-3.4-1.6-7.1-1.6-10.8c-0.2-21.7,0.3-43.3-0.3-65c-0.2-7.1,4.1-10.1,8.9-13.4
			c-0.4,0.7-0.6,1.7-1.3,2.1c-5,3.6-5.9,8.4-5.8,14.3c0.3,20.5,0.2,41,0.1,61.5c0,4.6,0.7,8.4,4.3,11.5c2.7,2.4,4.8,5.3,7.5,8.4
			c-13.4,0-26.2,0-38.9,0c0-0.4,0-0.8,0-1.1c11.3,0,22.6,0,33.9,0c0.2-0.6,0.4-1.3,0.6-1.9c-2.1-0.8-4.2-2.4-6.4-2.4
			C343.8,612.5,333.7,612.6,323,612.6z"/>
		<path d="M579.7,747c-11.3,0-22.5,0-34.2,0c0.6-0.7,1-1.7,1.8-2.1c6.5-3.6,7.9-9,7.7-16.2c-0.5-20.2-0.4-40.3,0-60.5
			c0.1-5.7-1.1-10-6-13.1c-1.2-0.8-2.1-2-3.8-3.6c11.6,0,22.4,0,33.8,0c-0.5,0.9-0.7,1.6-1.1,1.9c-7.2,4.9-8.1,11.8-7.9,20
			c0.5,20.3,0.3,40.7,0.1,61c0,4.4,1.3,7.3,5.6,8.7C577,744.4,578.4,745.7,579.7,747z"/>
		<path d="M1105,308.7c-2.1-1.7-3.9-3.1-6-4.9c9.8-13.8,19.4-27.4,29.4-41.5c4.6,3.6,8.9,7.1,13.6,10.9
			C1129.5,285.2,1117.4,296.7,1105,308.7z"/>
		<path d="M1177.3,420.4c-1.5,5-2.4,10.3-4.5,15.1c-10.7,24.2-38.5,39-64.5,34.1c-15.7-3-26.1-13.3-34.1-26.3
			c-2.5-4-4.6-8.1-6.9-12.2c-4.3-7.9-9.3-15-18.4-18.1c0-0.5,0-1,0-1.6c1.4-0.2,3.3-1.1,4.2-0.5c3.7,2.6,7.9,5.2,10.5,8.8
			c4.9,6.9,8.7,14.5,13.2,21.7c7.5,11.9,16.8,21.5,31.2,24.8c27.4,6.2,58.3-12.7,66.4-40.8c0.5-1.7,0.9-3.5,1.4-5.2
			C1176.4,420.1,1176.8,420.2,1177.3,420.4z"/>
		<path d="M482.9,129.4c-0.8,1.4-1.4,3-2.5,4.1c-4.3,4.4-6.3,9.6-4.4,15.5c4.8,15.6,9.8,31.1,15.1,46.5
			c9.8,28.6,19.9,57.2,29.9,85.7c0.6,1.7,1.1,3.4,1.6,5c-8.8,5.2-18.9,7.5-21.4,4.8c6-2.2,11.9-4.3,18.1-6.6
			c-4.8-13.8-9.4-27.1-14.1-40.4c-9.4-26.8-18.8-53.7-28.1-80.6c-1.9-5.5-3.2-11.2-4.1-16.9C471.8,138.6,475.2,132.5,482.9,129.4z"
			/>
		<path d="M415,326.6c-6.8,3.2-12.5,7.8-19.5,9.6c-0.4-0.7-0.7-1.5-1.1-2.2c5.4-3,10.8-6,16.7-9.2c-1.8-3.5-3.5-6.9-5.3-10.2
			c-18.1-33.5-36.3-67-54.2-100.6c-3.5-6.7-6.3-13.9-8.4-21.2c-1.9-6.5,1.3-11.9,7.2-15.8c-0.4,1.4-0.3,3.1-1.1,4.1
			c-5,5.9-4.7,12.3-1.8,18.7c3.8,8.3,8,16.4,12.3,24.5c17.5,32.5,35,65,52.6,97.5C413.3,323.3,414,324.8,415,326.6z"/>
		<path d="M1006.6,384.5c-11.6-5.9-16.6-9.9-17-14.1c5.7,3.6,11,6.9,16.6,10.4c1.2-1.7,2.3-3.3,3.4-4.9c21.3-33.2,42.6-66.4,64-99.5
			c3.7-5.7,7.8-11.3,12.3-16.3c5.9-6.5,12.2-7.5,19.8-3.4c-1.5,0.2-3.2,0.8-4.6,0.6c-5.4-1-10.1,0.6-13.6,4.5
			c-4.2,4.7-8.1,9.7-11.6,15c-22.5,34.8-44.8,69.7-67.2,104.6C1008.1,382.4,1007.3,383.4,1006.6,384.5z"/>
		<path d="M801.4,611.6c-0.2-0.3-0.5-0.7-0.7-1c-6.4-5.3-5.5-11.4-3.3-18.6c6.4-20.6,11.4-41.7,18.4-62.1
			c3.6-10.5,10.2-20,15.6-29.9c0.8-1.4,2.1-2.6,3.2-3.8c0.2-0.2,0.6-0.1,1.1-0.2c0.1,0.4,0.5,1,0.4,1.2
			c-14.6,16.5-20.6,37-26.3,57.5c-4,14.4-7.8,28.9-11.9,43.2c-0.9,3.1-0.5,5.3,1.7,7.6c3.6,3.9,7,8,11,12.7c-13.3,0-25.8,0-38.3,0
			c0-0.4,0-0.8,0-1.2c11.1,0,22.1,0,33.2,0c0.4-0.7,0.9-1.3,1.3-2C804.9,613.9,803.2,612.7,801.4,611.6z"/>
		<path d="M1106.9,618.4c-13.4,0-25.9,0-38.5,0c0-0.4,0-0.8,0-1.1c11,0,22.1,0,34,0c-1.1-1.8-1.5-2.9-2.2-3.5c-6-5-7.3-11.3-7.1-19
			c0.5-20.8,0.3-41.6,0.1-62.4c0-4.3,1.4-5.8,5.5-5s8.8-0.4,12.5,4c-4.2-0.8-7.8-1.5-11.4-2.1c-2.9-0.5-4.7,0.2-4.7,3.8
			c0.2,23.1,0.2,46.3,0.4,69.4c0,1.8,1.2,3.7,2.3,5.2C1100.5,611.1,1103.6,614.4,1106.9,618.4z"/>
		<path d="M579.7,747c-1.4-1.3-2.7-2.6-4.1-3.8c-0.6-2.7-1.7-5.3-1.7-8c-0.1-22,0.3-43.9-0.3-65.9c-0.2-7.5,4.1-10.8,9.3-14.3
			c-0.4,0.7-0.6,1.7-1.2,2.1c-5.4,3.7-6.3,8.9-6.1,15.2c0.4,20.3,0.3,40.6,0.1,60.9c0,4.5,1.1,8,4.4,11c2.9,2.6,5.3,5.8,8.2,9
			c-13.6,0-26.5,0-39.3,0c0-0.4,0-0.8,0-1.2c11.1,0,22.3,0,34.9,0C581.8,749.6,580.8,748.3,579.7,747z"/>
		<path d="M655.9,567.7c18.2-8,27.3-19.1,20.2-37.6c4.8,5.3,5.4,15.4,1.5,23.1c-2.8,5.4-5,7.2-19.4,15.9c6.5,19,17.8,34.5,34.6,45.8
			c-10.8,4.8-21.4,9.5-32,14.1c8.3-6.9,18.3-10.5,28.5-14C667.9,593.7,661.3,584.4,655.9,567.7z"/>
		<path d="M1120.1,356.9c-0.1,2.7-0.9,5.5-0.3,8c1.3,4.9,2.9,9.9,5.1,14.5c5.5,11.2,11.6,22.1,17,33.3c2.7,5.4,2.5,11.2-0.7,16.9
			c1.1-9.7-2.8-17.9-7.3-25.9c-3.7-6.7-7.6-13.3-11-20.1c-2.3-4.7-4.5-9.7-5.6-14.8c-0.8-3.8,0.2-8,0.4-12
			C1118.5,356.8,1119.3,356.9,1120.1,356.9z"/>
		<path d="M274.7,569.1c6.8,19.1,18,34.5,34.7,45.7c-10.9,4.8-21.6,9.5-32.3,14.3c-0.2-0.4-0.4-0.9-0.6-1.3
			c9.6-4.4,19.2-8.9,29.2-13.5c-16.2-11.7-26.2-27.8-33.3-46.5c17.1-7.6,28.4-18.1,19.5-39.6C302.4,543,296.8,555.8,274.7,569.1z"/>
		<path d="M1195.4,363.3c-0.5-20.8-6.7-30.9-18.6-31.3c-12.2-0.4-20.1,9.5-21.5,27.2c-4.1-7-1-17.6,7.1-24.8
			c7.8-6.9,18.3-7.6,26-1.6C1197.6,339.9,1200.7,352.2,1195.4,363.3z"/>
		<path d="M944.8,614.4c2.4-0.5,4.9-1.7,7.2-1.4c6.7,0.9,13.4,2.1,20,3.6c9,2.1,18,3.3,27.2,1c22.2-5.5,31.3-25.3,22.3-47.8
			c6.7,8.3,7.3,17.6,4,27.3c-4.5,13.4-18.8,23.3-34.1,23.4c-5.9,0-11.9-0.8-17.8-1.8c-9.5-1.7-18.6-5.9-28.7-2.4
			C944.9,615.6,944.9,615,944.8,614.4z"/>
		<path d="M785.3,753.3c-6,0-11.2,0-16.3,0c0-0.4,0-0.9-0.1-1.3c2.5-0.1,5-0.3,7.4-0.3c6.7-0.1,6.8,0,6.8-6.9
			c0.1-22.8,0.1-45.6,0.2-68.4c0-2.3,0-4.7,0.3-7c0.8-7.5,3.6-10.5,12-12.2c-0.5,0.8-0.8,1.5-1.1,1.6c-8.4,2.3-9.4,8.8-9.4,16.1
			c0.1,24.1,0.1,48.3,0.2,72.4C785.3,749.2,785.3,751.2,785.3,753.3z"/>
		<path d="M680.5,753.3c-5.9,0-10.9,0-16,0c0-0.4,0-0.8,0-1.2c4.4,0,8.8,0,13.8,0c0.1-2.7,0.3-4.6,0.3-6.5c0-22.6,0-45.3,0.1-67.9
			c0-3.1,0.3-6.3,0.8-9.4c1.1-7.2,3.8-9.8,11.5-11.1c-0.2,0.5-0.3,1.1-0.5,1.2c-9.1,2.8-10,10.1-10,17.9c0,23.8,0,47.6,0.1,71.4
			C680.5,749.5,680.5,751.3,680.5,753.3z"/>
		<path d="M846.8,617c15.6,0,31.2,0,46.8,0c10.1,0,20.3-0.1,30.4,0.1c3.6,0.1,5.7-1,6.2-4c-5.1-7-9.9-13.6-14.7-20.2
			c0.5-0.4,0.9-0.7,1.4-1.1c0.6,0.7,1.3,1.4,1.9,2.1c3.7,5.1,7.5,10.1,11.1,15.3c1,1.5,2.1,3.7,1.7,5.3c-0.6,2.9-2.6,4.4-6.1,4.4
			c-18-0.2-35.9-0.1-53.9-0.1c-6.8,0-13.6,0-20.5,0c-1.5,0-3-0.2-4.5-0.3C846.7,617.9,846.7,617.4,846.8,617z"/>
		<path d="M566,592.5c4.8,6.1,9.7,12.1,14.5,18.2c2.1,2.6-0.5,7.7-4.1,8c-2.3,0.2-4.7,0.1-7,0.1c-22.8,0-45.6,0-68.4,0
			c-1.7,0-3.4,0-5.2,0c0-0.5-0.1-1-0.1-1.6c1.6-0.1,3.3-0.2,4.9-0.2c24.1,0,48.3,0,72.4,0c2.6,0,5.5,0.2,5.8-3
			c0.1-1.6-1.4-3.6-2.5-5.2c-3.7-5.3-7.7-10.4-11.5-15.7C565.2,592.9,565.6,592.7,566,592.5z"/>
		<path d="M1104.3,320.7c-2.7-2.4-4.9-4.3-7.2-6.3c0.3-0.4,0.6-0.8,0.9-1.2c1.9,1.3,3.8,2.6,6.1,4c12.9-11.9,25.7-23.8,38.5-35.6
			c0.5,0.5,1,1.1,1.5,1.6C1131,295.6,1117.9,307.9,1104.3,320.7z"/>
		<path d="M604.7,204.6c-2.7-18.2-5.4-36.4-8.1-54.6c0.7-0.1,1.3-0.2,2-0.3c3.5,18.1,5.5,36.4,8.4,54.5
			C606.2,204.4,605.4,204.5,604.7,204.6z"/>
		<path d="M1193.7,382.5c1.1-3.2,27.3-16.4,39.4-19.7c-0.6,1.5-0.8,3-1.4,3.3c-12.3,5.7-24.8,11.2-37.2,16.7
			C1194.3,383,1193.9,382.7,1193.7,382.5z"/>
		<path d="M1004.6,585.2c-6.9-6.3-15.9-7-24.2-9.4c-5.9-1.7-11.9-3.1-17.6-5.2c-3.1-1.2-5.7-3.7-8.1-6.4
			c10.2,8.2,23.3,7.8,34.8,11.8C995.1,577.9,1001.5,578.6,1004.6,585.2z"/>
		<path d="M974.8,548.8c-5.9-2.5-8.6-6.8-8-12.1c0.6-5.6,4-9.5,9.8-11.2c8.5-2.5,18.2,1,22.3,7.8c-3.8-1.9-7.7-4.6-12-5.7
			c-3.3-0.9-7.4-0.8-10.6,0.3c-8,2.7-9.9,11.1-4.6,17.7C972.7,546.7,973.7,547.7,974.8,548.8z"/>
		<path d="M1099.6,392.6c-2.4,5.8-5.6,11.4-7,17.4c-1.4,6.2-1.1,12.9-1.4,18.3C1085.8,419.5,1089.2,400.9,1099.6,392.6z"/>
		<path d="M609.3,140.7c-1.4-5.3,5.2-28.8,11.5-37.9c0,1.1,0.3,2.3,0,3.2C617,117.7,613.2,129.2,609.3,140.7z"/>
		<path d="M900.2,578.4c0-10.4,0-20.8,0-31.2c0.3,0,0.6,0,0.9,0c0,10.4,0,20.9,0,31.3C900.8,578.5,900.5,578.4,900.2,578.4z"/>
		<path d="M549.3,578.4c0-10.4,0-20.8,0-31.3c0.3,0,0.6,0,0.9,0c0,10.4,0,20.9,0,31.3C549.9,578.5,549.6,578.4,549.3,578.4z"/>
		<path d="M1119.2,542.1c3.5-7.5,7.1-14.9,10.6-22.4c0.6,0.3,1.2,0.6,1.9,0.9c-3.6,7.4-7.2,14.9-10.7,22.3
			C1120.4,542.7,1119.8,542.4,1119.2,542.1z"/>
		<path d="M1021.3,520.7c-3.9,7.7-7.7,15.4-11.6,23.1c-0.6-0.3-1.2-0.6-1.7-0.9c3.9-7.7,7.8-15.4,11.7-23.1
			C1020.2,520.1,1020.7,520.4,1021.3,520.7z"/>
		<path d="M572.7,521.3c-4.2,6.8-8.3,13.6-12.5,20.4c-0.4-0.2-0.8-0.5-1.3-0.7c4.1-6.9,8.1-13.7,12.2-20.6
			C571.6,520.7,572.1,521,572.7,521.3z"/>
		<path d="M909.7,541.1c4.1-6.9,8.3-13.8,12.4-20.8c0.5,0.3,1,0.6,1.5,0.9c-4.2,6.9-8.4,13.8-12.6,20.6
			C910.6,541.6,910.1,541.3,909.7,541.1z"/>
		<path d="M973.8,604.8c-6.6-3.1-10.8-9.1-12.3-17.9C966,593.5,970.2,599.5,973.8,604.8z"/>
	</g>
</g>
<path d="M531.1,421.1c-3.4-4.3-8.6-4.8-13.3-6.1c-3.2-0.9-6.5-1.4-9.6-2.5c-7.3-2.7-10.7-7.8-10.6-15.3c0.1-7.1,4.6-13,11.5-15.3
	c6.1-2,12.2-1.1,18.2,0.3c3.7,0.9,7.4,2,11.8,0.2c-1.4,3.1-2.5,5.4-3.6,7.7c-1.1,2.4-1.6,5.1-3.5,7.1c-1.7-1.9-1.4-4.9-3.6-6.4
	l0.1,0.2c-3.1-6.9-13.9-7.9-18.9-3.8c-2.6,2.2-4,4.9-3.4,8.3c0.6,3.3,2.1,5.9,5.8,6.4c0.4,0,0.8,0,1.1,0c0.5,2.6,2.9,2.4,4.7,2.9
	c4,1.2,8.1,1.9,12,3.3c9,3.3,13.1,10.1,11.9,18.9c-1.1,7.8-8,14-16.5,15c-6.8,0.8-13.2-1-19.7-2.6c-3.2-0.7-6.6-2-10.1,0.7
	c2.4,2.3,5,0.4,7.2,1c4.3,1.2,8.7,2.1,13.2,2.9c19.3,3.1,30.1-7.1,28-26.3c3.8,6.5,2.3,15.3-3.7,21.3c-6.8,6.7-15,8-24.1,6.6
	c-5.7-0.9-11.4-3.9-17.2-2.5c-16.7,3.9-33.6,1-50.4,1.9c-1.6,0.1-3.3,0.5-4.9-0.6c1.7-1.2,3.5-0.7,5.3-0.7c13.5-0.1,27,0,40.5,0
	c1.6,0,3.4,0.4,4.4-1.4c1.2-2.2-1-2.9-1.9-4.1c-1.7-2.1-3.7-4-4.8-7.7c3.1,2.7,4.1,5.9,7,7.6c3.6-4.3,5.1-9.7,7.7-14.6
	c5.2,12.7,12.4,17.4,22.9,15.1c8.3-1.8,11.3-7.8,7.6-15.7C532,422.1,531.6,421.6,531.1,421.1z"/>
<path d="M474.2,390.1c-4.6-0.6-9.2-1.3-14.3,0c0,5.3,0,10.7,0,16.1c6.4,2.9,10-1,13.6-6.9c0.8,6.7,0.5,12.1,0.3,18.6
	c-4.3-5.5-9.2-2.6-14-3.1c0,7.4,0,14.4,0,21.5c10.5,1.7,14.3,0,22.4-10.3c1.4,5.3,4,9.6,8.4,13.9c-17.1,0-33.4,0-50.6,0
	c10.9-6.7,4.2-16.5,6.4-24.4c-2.9-1.2-4.6,1-7,0.8c1.2-3.1,5.2-1.6,6.8-4.4c-3.3-1.8-5.8,0.9-8.8,1.3c1-4.9,5.1-5.4,9-7
	c-1.9-8,4.2-17.6-7.1-24.2c16.9,0,32.4,0,48.4,0c-2.5,4.4-4.8,8.6-7.4,13.2c-1-1.4-1.9-2.5-2.7-3.7c-5.6-8.7-14-4.7-21.4-5.6
	c0,7.4,0,14.1,0,20.8c0.5,0,1,0,1.5,0.1c1.5-5.9-0.2-12.2,1-18.4C464.2,387.9,469.4,387,474.2,390.1z M456.1,411.3
	c0,8.9,0,17.2,0,25.4c0.5,0,1.1,0.1,1.6,0.1c0-7.7,0-15.3,0-22.6c4-1.7,7.5-0.1,11.3-2.1C464.2,410.4,460.2,411.2,456.1,411.3z"/>
<path d="M762,420.3c-6.9,4.7-13,6.9-20.9,3.8c15.9,0.1,21.8-3.3,22-12.9c-3.6,7.4-9.1,10.9-16.9,10.7c-6.3-0.2-11.2-3-14.5-8.3
	c-5.6-8.8-2.6-22.2,6.2-28.5c8.4-6,20.6-4.2,27.4,4c8.9,10.8,9.2,30.6,0.5,44.7c-6.5,10.5-15.8,16.9-28.3,18.2
	c-1.7,0.2-3.6,0.8-5.7-2.2C749,447.7,758.7,437.9,762,420.3z M763.2,406.1c-0.6-5.3-0.6-10.1-3-14.2c-2.4-4.1-5.9-6.7-10.8-6.9
	c-4.2-0.2-7.5,1.8-9.3,5.5c-3.4,6.8-3.7,13.7-0.2,20.5c2.3,4.5,6.3,6.2,11.2,5.7c4.6-0.5,7.5-3.1,8.4-7.8
	C759.9,407,760.5,405.3,763.2,406.1z"/>
<path d="M787.8,449.9c7.6-1.7,14.8-3.3,20.2-8.8c5.4-5.5,8.6-12.1,9.9-20.5c-6.6,4-12.8,6.8-20.5,3.4c15.8,0,21.4-3.3,21.7-12.9
	c-3.1,6.4-7.7,10.1-14.3,10.6c-7.7,0.6-13.9-2.1-17.5-9.1c-4-7.9-3.3-15.9,2-23.1c8.6-11.6,25.1-10.8,33.4,1.4
	c8.6,12.6,6.7,34.1-4.4,47.6c-6.4,7.7-14.6,12.5-24.8,13.3C791.9,452.1,789.9,452.7,787.8,449.9z M819.2,405.9
	c-0.6-5.1-0.6-10-3.1-14.3c-4.7-8.1-14.8-9-19.6-1.8c-3.8,5.6-3.8,16.2-0.1,21.9c2.6,4.1,6.5,5.6,11.1,5c4.4-0.5,7.2-3.1,8.1-7.5
	C815.9,407.1,816.4,405.2,819.2,405.9z"/>
<path d="M880.8,405.1c-1.3,2.3-3.8,3-6.3,4.5c5.6,3.1,9,7.4,9.3,13.9c0.3,8.2-3.4,14.3-11.1,17c-6.6,2.3-13.5,2.4-20.2,0.4
	c-7.1-2.1-10.7-7.4-12.2-14.7c3.3-1.5,6.3-3,9.8-4.7c-0.1,2-0.3,3.4-0.2,4.9c0,7.5,3.6,11.8,10.3,12.3c7.6,0.6,12.5-3.3,13.6-10.8
	c1.6-11.6-4.1-17.8-16.8-18.3c-0.6-4.1,2-4.4,5-4.5c4.9-0.3,8.6-2.6,9.9-7.6c1.3-4.8-0.4-8.6-4.3-11.4c-4.2-2.9-8.7-3.2-13.2-0.5
	c-3.3,2-4.7,5.1-4,9c0.5,2.5,1.6,4.4,4.6,3.8l-0.1,0.1c0.6-0.1,1.3-0.2,2-0.3c-1.8,4.3-7.2,5.4-11,2.3c-4.1-3.3-4.5-8.9-1-13.3
	c6.8-8.5,25.6-8.9,32.9-0.6c5.1,5.7,3.7,14.5-2.9,18.5c-1.5,0.9-3.3,1.6-5.3,2.5c4.8,2.8,7.3-1.6,10.6-2.9
	C880.4,404.7,880.6,404.9,880.8,405.1z"/>
<path d="M580.9,440c-6.4,2.2-13,0.5-20,0.5c7-3.5,5.3-9.6,5.3-15c0.1-11.6,0-23.3,0-34.8c-7.3-1.8-9.5-0.6-12.9,6.4
	c-0.1-6.1,0.2-6.3,12.3-9.2c-5.4-4.7-13.2-0.8-15.7,8.4c-2.2-4.9-4.2-9.3-6.3-14.2c18.4,0,36.4,0,55,0c-2.2,4.5-4.3,8.7-6.4,13.1
	c-1.9-1.4-1.2-4.5-3.7-5.4l0.1,0.2c-3-5.5-7.9-3.7-12.4-3.8c-0.3,0.9-0.5,1.3-0.5,1.8c0,15.2,0,30.5-0.1,45.7c0,2.8,1.4,4.2,3.9,5
	C579.9,439.1,580.4,439.6,580.9,440z"/>
<path d="M685.9,440.5c6.2-2.9,5.8-7.2,5.7-11.6c-0.1-10.6,0-21.3,0-32.4c-5,0.9-9.6,1.6-11.7-4.2c-0.5-1.5-1.4-3-0.1-4.1
	c1.4-1.2,2.7-0.6,3.3,1.4c0.7,2.1,2.4,1.4,3.8,0.9c2.4-0.8,4.6-2.2,5.8-4.5c1.6-2.9,3.8-4,7.7-2.6c0,5.8,0,11.9,0,18
	c0,6.2-0.1,12.3,0,18.5c0.1,5.9-0.4,11.9,0.3,17.8c0.6,0,1.2-0.1,1.8-0.1c0-17.5,0-35.1,0-53.8c1.6,2.6,1.2,4.3,1.2,6
	c0,12,0.3,24-0.1,36c-0.2,7.2,0.4,13.6,8.2,18.7c-8.9,0-16.2,0-23.5,0c0-0.2,0-0.5,0-0.7c6.2,0,12.3,0,18.5,0
	c0.1-0.6,0.1-1.2,0.2-1.9C700.7,439.9,694,441.9,685.9,440.5z"/>
<path d="M792.4,455.2c14.1-2.2,25.2-8.9,32.4-21.4c7-12.1,7.7-25.1,4.2-38.4c5.4,13.6,4.3,26.9-3.1,39.3
	C818.5,447.3,807.4,454.7,792.4,455.2z"/>
<path d="M736.4,455.1c14.1-2,25.1-8.7,32.2-21c7.1-12.1,7.9-25,4.4-38.4c5.1,12.3,4.1,24.4-1.5,36.3
	C764.8,446,750.6,455.4,736.4,455.1z"/>
<path d="M580.9,440c-0.5-0.5-1-0.9-1.4-1.4c-0.8-1-1.8-2-1.8-3.5c0-15.4,0-30.8,0-46.4c4.1-1.1,7.6-0.5,11,1.1l-0.1-0.2
	c-2.8,2.1-5.9-1.6-9,0.8c-0.8,4.3-0.3,9.1-0.3,13.9c-0.1,8.8,0,17.6,0,26.4c0,3.2,0.5,6.2,2.7,8.7c-0.2,0.2-0.4,0.4-0.6,0.6
	L580.9,440z"/>
<path d="M616.1,435.7c-0.3,3.7-2.2,6-6,6.1s-6-2.2-6-5.9c-0.1-3.7,2.1-6,5.8-6.1C613.7,429.7,615.6,432.1,616.1,435.7z"/>
<path d="M883.8,416.5c5.4,6.4,4.8,16.1-1.1,22.5c-7.6,8.1-23.5,9.6-33.6,2.9c12.1,4.2,23.8,5.2,33.3-5.2
	C887.7,430.8,887.2,423.7,883.8,416.5z"/>
<path d="M531.1,421.1c0.4,0.5,0.9,1.1,1.3,1.6c-0.1,0.6-0.4,1.7-1.1,1.1c-6.1-4.6-13.7-4.6-20.5-7c-3.4-1.1-7.1-1.7-9.9-6.3
	C510.8,417,521.7,417,531.1,421.1z"/>
<path d="M513.2,401.8c-0.4,0-0.8,0-1.1,0c-2.9-3.1-4.8-6.5-2.3-10.7c2.5-4.1,6.6-4.6,10.9-4.1c3.1,0.4,5.4,2.4,7.9,3.9l-0.1-0.2
	c-0.2,1.2-0.8,1.3-1.7,0.7c-1.3-0.8-2.5-1.7-3.8-2.2c-4.2-1.7-8.2-1.8-11.3,2C508.3,395.1,511.2,398.5,513.2,401.8z"/>
<path d="M476.7,401.3c0,6,0,12,0,18.1c-0.2,0-0.4,0-0.6,0c0-6,0-12.1,0-18.1C476.3,401.3,476.5,401.3,476.7,401.3z"/>
<path d="M855,398.4c-2.9-4.8-2.3-8.3,1.7-10.5c4.5-2.6,10.1-0.9,13.4,4.4c-2.5-1.4-4.2-3.3-6.7-3.8c-6.1-1.4-9.6,2-8.3,8.1
	C855.3,397.1,855,397.8,855,398.4C854.9,398.4,855,398.4,855,398.4z"/>
<path d="M608.1,443.9c8.8,1,11.7-2,10.1-10.6c2.7,3.2,2.9,6.2,0.2,9.3C615.4,446,611.9,446.6,608.1,443.9z"/>
<path d="M581.8,439.5c1.3,1.4,2.6,2.9,4.5,5c-8.2,0-15.5,0-22.9,0c0-0.3,0-0.6,0-0.8c6.4,0,12.7,0,18.8,0c0.8-2-0.9-2.4-1-3.5
	C581.4,439.9,581.6,439.7,581.8,439.5z"/>
<path d="M880.2,404.5c4.2-5.6,4.4-11.3-0.1-17.7c6.2,4.5,6.2,12.1,0.7,18.2C880.6,404.9,880.4,404.7,880.2,404.5z"/>
<path d="M535.3,398.7c0.6-5.6,3.4-10.1,6.9-14.2C539.9,389.2,537.6,394,535.3,398.7z"/>
<path d="M757.9,391c-5.4-2.1-10-3.8-13.1,0.3c-4.9,6.5-3.5,13.7-0.4,21.2c-5.1-5.8-5.2-17.1-0.6-22.1
	C747.1,386.7,751.9,386.6,757.9,391z"/>
<path d="M814,391c-5.4-2.1-10-3.9-13.1,0.2c-4.9,6.5-3.6,13.7-0.4,21.3c-5.2-5.9-5.2-17.2-0.6-22.2C803.2,386.7,808,386.6,814,391z"
	/>
</svg>