<?xml version="1.0" ?><!DOCTYPE svg  PUBLIC '-//W3C//DTD SVG 1.1//EN'  'http://www.w3.org/Graphics/SVG/1.1/DTD/svg11.dtd'>
<svg enable-background="new 0 0 100 100" height="100px" id="Layer_1" version="1.1" viewBox="0 0 100 100" width="100px" xml:space="preserve" xmlns="http://www.w3.org/2000/svg" xmlns:xlink="http://www.w3.org/1999/xlink">
    <g>
        <circle cx="50" cy="49.999" fill="#79C74F" r="45"/>
        <g>
            <path d="M63.089,37.188c-0.146-0.014-3.272-0.246-3.272-0.246s-2.171-2.167-2.409-2.404    c-0.24-0.241-0.705-0.168-0.886-0.115c-0.027,0.008-0.476,0.148-1.213,0.378c-0.728-2.099-2.007-4.026-4.261-4.026    c-0.062,0-0.125,0.003-0.189,0.007c-0.64-0.851-1.434-1.222-2.119-1.222c-5.245,0-7.752,6.593-8.538,9.941    c-2.039,0.635-3.488,1.086-3.672,1.145c-1.14,0.359-1.176,0.395-1.323,1.471c-0.114,0.816-3.091,23.957-3.091,23.957l23.199,4.367    l12.572-2.732c0,0-4.412-29.982-4.44-30.188C63.419,37.313,63.238,37.2,63.089,37.188z M50.687,36.009c0,0.08,0,0.154,0,0.229    c-1.279,0.397-2.667,0.828-4.056,1.262c0.779-3.027,2.242-4.49,3.523-5.041C50.475,33.271,50.687,34.437,50.687,36.009z     M48.596,30.974c0.228,0,0.453,0.078,0.674,0.229c-1.684,0.796-3.484,2.799-4.246,6.797c-1.111,0.346-2.199,0.686-3.205,0.998    C42.71,35.946,44.827,30.974,48.596,30.974z M49.499,48.802c0,0-1.359-0.729-3.022-0.729c-2.441,0-2.564,1.541-2.564,1.928    c0,2.117,5.489,2.928,5.489,7.885c0,3.898-2.461,6.41-5.779,6.41c-3.982,0-6.02-2.49-6.02-2.49l1.067-3.541    c0,0,2.093,1.807,3.858,1.807c1.153,0,1.623-0.914,1.623-1.58c0-2.762-4.502-2.885-4.502-7.422c0-3.818,2.725-7.512,8.23-7.512    c2.121,0,3.168,0.611,3.168,0.611L49.499,48.802z M52.06,35.81c0-0.139,0.002-0.275,0.002-0.426c0-1.303-0.18-2.354-0.468-3.185    c1.16,0.146,1.934,1.474,2.429,2.999C53.441,35.38,52.779,35.586,52.06,35.81z" fill="#FFFFFF"/>
        </g>
    </g>
</svg>