<svg id="Layer_1" data-name="Layer 1" xmlns="http://www.w3.org/2000/svg" viewBox="0 0 961.55 865.97">
  <title>tippecanoe-high-res-logo</title>
  <path d="M861,433.79c1.63-.85,2.67-1.32,3.65-1.91s1.54-1.37.24-2.27c-1.8-1.24-1-2.73-.09-3.86a20,20,0,0,1,4.14-3.93c.64-.44,1.89,0,2.85,0a10.3,10.3,0,0,1-1.43,2.24c-1.45,1.39-3,2.64-4,3.42,1.18,1.5,2.18,3.54,3.81,4.63a25.76,25.76,0,0,0,7.36,3.16,11.38,11.38,0,0,1,8.39,8,4,4,0,0,0,3.27,3.18c8.4,2.11,16.8,4.25,25.07,6.8,4.79,1.48,9.33,3.75,14,5.69,1.89.79,3.71,1.61,5.8.46a3.3,3.3,0,0,1,2.21,0q5.07,1.46,10.1,3.07c4.74,1.52,4.82,1.68,4.41,5.77,2.89,1.69,5.63,3.15,8.22,4.83,2.25,1.46,1.66,4.21,1.71,6.17.08,3-1.1,6-1.88,9.72l5.28-1.3c1.18.72,1.88,2,.93,4a22.63,22.63,0,0,0-.95,2.53c-1,3-.47,4.54,2.41,5.93,1.54.73,1.29,1.4,1,2.87-.59,3.41-2.2,5.14-5.67,5.34-.6,0-1.35.9-1.69,1.56-1.19,2.32-2,4.83-3.36,7.06-2.09,3.49-2.73,6-1.83,9.73.39-.11,1-.11,1.1-.33,1.4-3.42,5.65-4.24,6.83-8.1a10.78,10.78,0,0,1,9.11-7.54c1.32-2.59,2.51-4.81,3.58-7.1.69-1.49,1.09-3.13,1.83-4.59.36-.72,1.2-1.19,1.8-1.79a15.67,15.67,0,0,0,1.34-1.49c1-1.31,1.73-2.88,2.95-3.89.65-.54,2.09-.13,3.17-.15a16.25,16.25,0,0,1-.21,3.51c-.39,1.41-1.2,2.69-1.72,4.07-.38,1-.29,2.28-.88,3.08-3.59,4.8-4.95,10.67-7.79,15.83-3,5.43-5.55,11.09-5.67,17.48a11.84,11.84,0,0,0,.41,3.86,5,5,0,0,1-1.38,5.62c-4.15,4.38-5.35,9.58-4.18,15.53a14.48,14.48,0,0,1-.29,6.31c-1.34,5.1-3.06,10.09-4.58,15.14-.67,2.23-1.2,4.41-.16,6.79.55,1.25.28,2.84.44,4.26.32,2.67.58,5.35,1.07,8a5.73,5.73,0,0,0,1.48,2.8,4.85,4.85,0,0,1,1.17,5.28c-1,3.19-1.89,6.3-.6,9.68.66,1.73-.9,1.56-1.92,1.58-5.41.1-10.82.22-16.23.25q-37.47.15-75,.3c-2.05,0-3.24-.35-3.5-2.67-.34-3.08-2.12-4.63-5.38-4.94-4.65-.45-7.83-2.77-8.61-7.82a43.7,43.7,0,0,0-2-6.35c-1.19-3.71-1.42-7.26,1-10.67,2-2.82,1.53-3.38-1-5.9-1.34-1.36-1.84-3.72-2.32-5.72-.67-2.79-1-5.67-1.4-8.51a6.94,6.94,0,0,1-.1-2.22c1-5.53-1.42-11.5-6.46-13.74-3.52-1.56-6.2-4-9.11-6.26-2.32-1.8-4.19-3.64-4.76-6.85-.68-3.78-4.19-5-7.3-6.48-1.76-.86-3.12-2.53-4.74-3.73a24.39,24.39,0,0,0-3.57-2.16c-1.67-.84-3.62-1.25-5.06-2.35a42.1,42.1,0,0,1-5.91-5.73c-.73-.83-1.46-2.38-1.16-3.26,1.31-3.92.06-8,.68-11.71.87-5.24-.66-11.15,3.59-15.75,1.71-1.84-.76-7-3.27-7.42-2.87-.47-2.9-1.26-2.84-4.2.09-4.19,2.71-7.23,4.79-10,2.27-3,6.24-4.95,9.8-6.68s4.78-2.94,4.76-6.8c0-7,0-14,0-21,0-1.4.15-2.32,2-2.48,1-.09,2-1.11,2.7-1.94,1.4-1.61,2.8-2,4.49-.53,2.42,2,5.07,2.16,8,1.13,2.17-.76,4.42-1.32,6.63-1.95a22.49,22.49,0,0,0,8.67-4.1,8.27,8.27,0,0,1,4.34-1.42c3-.31,4.56-1.42,5.3-4.22.12-.48.63-1.25.89-1.23,1.26.13,3.07.07,3.61.84,1.18,1.66,2.89,4.4,2.27,5.59-1.79,3.38-2.29,7.17-4.06,10.49C861.53,432.65,861.43,432.87,861,433.79Zm3.13,57.35a35.61,35.61,0,0,1,1.93,3.14c.9,2,1.62,4,2.58,5.89.36.71,1.22,1.61,1.84,1.6a2.92,2.92,0,0,0,2-1.49,38.45,38.45,0,0,0,1.68-4.38q3.2-8.43,6.41-16.86c.77-2,.12-3.62-1.73-4.21-.46-.15-1.91,1.81-2.42,3-2.08,4.88-4,9.85-5.93,14.79l-.75-.06a12.5,12.5,0,0,1-.86-2.13c-.7-3.57-1.25-7.16-2-10.71-.18-.82-1.1-2.1-1.61-2.07a3.37,3.37,0,0,0-2.43,1.58,25,25,0,0,0-1.24,4.53c-.85,3.14-1.73,6.27-2.59,9.4l-1.07-.05c-.66-2.15-1.35-4.3-2-6.47-1.13-3.94-1.65-8.15-4.8-11.21a2.57,2.57,0,0,0-1.92-.62c-.32.05-.67,1.06-.68,1.64a8.34,8.34,0,0,0,.4,2.42c.72,2.62,1.43,5.24,2.25,7.82,1.35,4.26,2.67,8.53,4.27,12.7a4.11,4.11,0,0,0,2.76,2.32c.82.07,2-1.24,2.62-2.2a20.63,20.63,0,0,0,1.61-3.9C863,494.35,863.41,493.07,864.12,491.14Zm37.47,66.76c1.32-.17,2.66-.25,3.95-.53,3.51-.77,7-4.79,6.88-8s-2.52-5.62-6.67-6.61a64.16,64.16,0,0,1-6.89-1.86c-.83-.3-1.9-1.34-1.93-2.09A3.55,3.55,0,0,1,898.3,536a9.17,9.17,0,0,1,4.49-.87c1.34.06,2.63,1,4,1.21a15.9,15.9,0,0,0,3.62-.24,13.36,13.36,0,0,0-1.2-3.13,4.84,4.84,0,0,0-2.25-1.48,11.72,11.72,0,0,0-12,1.74c-4.39,3.65-5.4,8.1,1.28,11.11,2.39,1.08,5,1.63,7.51,2.53A17.33,17.33,0,0,1,907,548.5c1.44.91,1.25,2,.08,3-3.6,3.3-7.22,3-10.17-.84-.2-.26-.29-.71-.54-.83-1.09-.49-2.4-1.47-3.31-1.2-1.75.54-1.7,2.14-1,3.73C893.59,555.84,897.2,558,901.59,557.9ZM912,578a28.49,28.49,0,0,0,.41,3.7c2.07,8.66,12.55,12.62,20.71,7.81a6.57,6.57,0,0,0,2.64-2.17c.47-.93.15-2.26.17-3.42-1,.13-2.34-.11-2.92.45-2.28,2.21-5,2.1-7.86,2.3-3.79.27-5.76-2-7.18-4.71a7.5,7.5,0,0,1,.9-8.82c3.15-3.73,7.08-4.32,11.47-1.91.72.4,2.47.3,2.74-.16a3.1,3.1,0,0,0-.07-2.92c-1.34-1.38-3-3-4.7-3.38C918.86,562.84,911.25,571.45,912,578ZM886.4,517.49c0-3.49,0-7,0-10.46,0-1.35-.39-2-1.83-1.95-1.26.05-2,.33-2,1.84.21,7.8.33,15.6.57,23.39,0,.53.75,1.47,1.13,1.47a2.05,2.05,0,0,0,1.57-1.15,17.67,17.67,0,0,0,.53-4.18C886.45,523.47,886.4,520.48,886.4,517.49Z" transform="translate(-25.15 -29.11)"></path>
  <path d="M25.15,461.38c5.7-5.55,11.18-11.35,17.16-16.57A70.08,70.08,0,0,1,65.9,431.1c12.77-4.34,25.08-3.34,36.81,3.37,10.8,6.18,19.51,14.28,23.05,26.7,3.14,11,2.46,21.88-1,32.69s-8.63,20.87-14.55,30.54a11.47,11.47,0,0,0-1.29,2.6c3.47-3.31,6.81-6.76,10.44-9.88,4.53-3.89,9.16-7.7,14-11.17,4-2.9,8.89-4,13.8-4.53,1.3-.16,2-.52,2.31-2,.7-3.73,1.46-7.47,2.53-11.12A27.14,27.14,0,0,1,164.81,472a4.91,4.91,0,0,0,2.69-4.1,25.63,25.63,0,0,1,4.65-12.25c2.28-3.19,4-3.73,6.48-.76a32.92,32.92,0,0,1,5.34,9.64c1,2.81,2.44,4,5.38,4.45,11.83,1.82,20.71,8.33,26.26,18.71,3.33,6.23,5.49,13.11,7.9,19.8,1.15,3.2,0,4.89-3.3,6.06-1.69.6-3.65.71-3.81,3.21,0,.39-1,.77-1.57,1.08-7.28,3.9-15.14,4.14-23.11,3.59-1.41-.09-2.81-.29-4.22-.31-3.24-.06-4.41,1.63-3.62,4.89,1.2,5,4.2,8.81,7.83,12.16,2.51,2.31,5.49,1.13,8.28.44,3.77-.93,7.5-2,11.26-3a6.48,6.48,0,0,1,1-.17c4.64-.59,6,.58,5.84,5.23a43.67,43.67,0,0,1-.49,5.22,7.71,7.71,0,0,1-7.76,6.15,14.91,14.91,0,0,0-13.42,7.29c-6.4,10.33-16.43,11.83-26.58,9.4-2.49-.6-4.9-1.51-7.85-2.44,3.75,16.73.5,31.67-11.18,45.08,1.88-.11,3.14-.14,4.39-.26,4.9-.46,9.78-.62,14.56.89,3.73,1.17,5.52,3.27,5.12,6.06-.62,4.4-3.32,7-7.29,7-18.74,0-37.49-.18-56.23.1a35.66,35.66,0,0,1-17.26-3.76c-15-7.75-28.44-17.49-37-32.56-6.26-11-10.54-22.83-7-35.54,3.29-11.67,8.38-22.71,16.27-32.25,6-7.29,11.85-14.77,17.7-22.22a31.57,31.57,0,0,0,3-4.85c2.07-3.95,1.57-7.63-1.25-11.11-3.8-4.68-8.8-7.77-13.82-10.87-7.54-4.64-15.45-8.46-24.39-9.19-6.54-.54-13.13-.43-19.7-.6-.78,0-1.56,0-2.34,0Zm176.56,34a10.34,10.34,0,0,0,1.5-.13c2.81-.52,3.32-1.36,2.57-4.09s-4.55-5.43-7.32-5c-1,.15-2.38.53-2.73,1.24C194,490.94,197.15,495.4,201.71,495.4Z" transform="translate(-25.15 -29.11)"></path>
  <path d="M931.14,410.75c-1.8-.59-3.49-1.17-5.2-1.68-3.42-1-6.83-2.09-10.28-3a2.52,2.52,0,0,1-2.26-2.44A416.61,416.61,0,0,0,592.13,55.77a408.65,408.65,0,0,0-68.62-9.32,419.53,419.53,0,0,0-71.32,2.23A408.8,408.8,0,0,0,341.11,77.84q-113.22,47.79-183,148.89A408.29,408.29,0,0,0,94.78,372.54c-2.21,10-3.77,20.23-5.51,30.38a3,3,0,0,1-2.55,2.75c-5.08,1.52-10.09,3.25-15.63,5.07,10.48-83.58,41.46-158.32,95.14-222.92C243.7,94.58,343.18,40.9,464.07,30.73,717.92,9.39,909.85,201.92,931.14,410.75Z" transform="translate(-25.15 -29.11)"></path>
  <path d="M890.77,651.14C831,778.48,686.63,898.24,493.54,895,309.79,892,169.7,776.15,111.05,649.44c4.67,0,9.25.36,13.73-.11,3.82-.41,5.39,1.09,7.07,4.3a414.84,414.84,0,0,0,134.64,152,413.23,413.23,0,0,0,230.28,72.53,419.53,419.53,0,0,0,86.59-8.06A416,416,0,0,0,845,696.7a407.21,407.21,0,0,0,26.46-44.32,3.07,3.07,0,0,1,3.45-2C880.1,650.75,885.34,650.9,890.77,651.14Z" transform="translate(-25.15 -29.11)"></path>
  <path d="M604.9,462.52c.23,4.4.36,8.8.69,13.19.37,4.87,3,8.38,6.67,11.5a33.12,33.12,0,0,1,6.79,7.74c1,1.61.62,4.18.51,6.29-.4,7.65-.83,15.3-1.45,22.93a147,147,0,0,1-5.72,30c-2.87,9.64-4.6,19.42-2.76,29.47a42.25,42.25,0,0,0,3.1,10.45c1.88,4,1.48,7.54-.08,11.27a82.56,82.56,0,0,1-21.71,30.14c-9,8-19.31,14-30.16,19.3-12.39,6-24.47,12.63-36.68,19a54.48,54.48,0,0,0-6.48,3.7,17.36,17.36,0,0,0-7.5,14.74c-.07,6.58,0,13.16,0,19.74,0,3.35-.34,4.11-3.62,4.41a80.15,80.15,0,0,1-12.68.21c-3.83-.27-5.25-2-5.32-5.89a104.64,104.64,0,0,1,.46-10.47c1.1-13-4.19-22.89-14.75-29.95-5.08-3.4-10.71-6-16.14-8.84-10.07-5.32-20.29-10.39-30.25-15.92-16.16-9-28.74-21.42-36-38.74a24.92,24.92,0,0,0-2.51-4.59c-6.1-8.74-6.85-17.93-2.72-27.68a36.17,36.17,0,0,0,1.94-21.77c-2.44-11.82-5.53-23.51-8.25-35.27a55.87,55.87,0,0,1-1.29-8.62,21.32,21.32,0,0,1,4.18-14.52c6.64-9.05,11.31-19.16,15.24-29.61,2.26-6,1.62-12.25.92-18.47-1-8.74,2.25-15.65,8.91-21.35,10-8.55,19.67-17.43,29.56-26.08,6.15-5.39,9.76-12.53,13.76-19.42a20.85,20.85,0,0,1,2.48-3.73c1.05-1.11,2.3-2.45,3.67-2.75a22.14,22.14,0,0,0,12.85-8.57c6.65-8.53,13.48-16.84,21.37-24.28,2.9-2.73,5.34-5.94,8-8.89,1.86-2,3.93-2,5.56.2,6.79,9.32,13.43,18.75,20.27,28a69.78,69.78,0,0,0,7.61,8.85,19.2,19.2,0,0,0,6.1,3.65c8.29,3.38,14.63,9.17,17.9,17.23,5.53,13.66,15.83,22.24,28,29.29a107.46,107.46,0,0,1,10.78,7.13,19.62,19.62,0,0,1,7.91,14.95c.5,7.3.91,14.61,1.35,21.92Zm-108.42,52.7c.13-1,.31-1.78.34-2.6q.56-14.1,1.08-28.19a15.7,15.7,0,0,0-3.57-10.65c-10.52-13.1-21.13-26.13-31.66-39.22-2.77-3.44-5.36-7-8-10.53l.74-.83a14.08,14.08,0,0,1,2.48,1.61q18,18.26,35.88,36.58c1.55,1.6,2.89,1.94,4.66.54,0-2.88,0-5.71,0-8.54,0-4.83-.18-9.69.29-14.48.8-8.32-1.24-15.48-7.3-21.38-2.15-2.09-4.39-4.1-6.38-6.34-4.88-5.47-10-10.74-14-16.95,2-1.57,2.75.27,3.61,1.07q10.67,10,21.18,20.16c1.19,1.16,2.17,1.47,3.73.44v-41l2.56.2c.82,15,1.64,29.83,2.48,45.26,1.21-.55,2.19-.72,2.76-1.3,2.2-2.27,4.27-4.67,6.39-7l16.83-18.64,2,1.21a6.09,6.09,0,0,1-.29.72c-8.91,12-17.86,24-26.69,36.07a8.9,8.9,0,0,0-1.81,4.73c-.17,11.17-.11,22.33-.11,33.5,0,1.65,1.25,2.32,2.62,1.44a7.56,7.56,0,0,0,1.09-1q15.07-15.48,30.14-31c2-2.08,3.9-4.28,5.85-6.42l1,.82a53.31,53.31,0,0,1-3.17,5.32q-16.93,22.22-34,44.36a21.36,21.36,0,0,0-4.66,13.18c0,7.7.47,15.4.77,23.8,26.86-19.22,51.07-40.18,71.17-65.69a15,15,0,0,1-3.75,8.81c-1.87,2.23-3.87,4.35-5.88,6.47-15.5,16.39-31.08,32.71-46.5,49.18A116.27,116.27,0,0,0,506.68,533c-4.36,6.51-5.21,14-4.22,21.78.79,6.15.8,12.41,1.14,18.63.12,2.2.2,4.41.32,6.9,1.12-.57,1.86-.92,2.59-1.31,16.22-8.59,29.16-21.16,41.69-34.24q15.9-16.59,31.88-33.09c1-1,2.09-1.82,3.14-2.72l.61.46a16.33,16.33,0,0,1-1.67,2.73q-7.85,8.73-15.8,17.36Q546.68,551,527,572.4c-4.89,5.32-9.52,11-16.73,13.35a8.87,8.87,0,0,0-1.28.77,8.4,8.4,0,0,0-4.65,8.09c.15,10.5-.09,21-.15,31.49,0,2.79,2,3.91,4.39,2.33,6.82-4.44,13.83-8.65,20.27-13.59,10.1-7.73,19.78-16,29.69-24,3.63-2.92,7.44-5.62,11.16-8.42l.59.64a36.8,36.8,0,0,1-3,3.48c-2.57,2.37-5.25,4.62-7.89,6.91q-26.26,22.69-52.5,45.39a8.61,8.61,0,0,0-3.36,7.41c.35,5.48.43,11,.54,16.47.14,6.92,2.32,8.53,8.58,5.72,9-4.05,18-8.24,26.79-12.67,12.6-6.33,25.17-12.74,37.57-19.46,12.91-7,21.26-18.38,28-31a10.58,10.58,0,0,0,.24-9.63c-6.43-14.12-5.52-28.29-1.23-42.84,3.09-10.48,5.22-21.25,7.33-32A130.89,130.89,0,0,0,613.32,503c.31-5.43-1.18-10.15-6.65-12.88a26.56,26.56,0,0,1-6.41-4.66,10.29,10.29,0,0,1-3-9.78c.8-4.56,1.67-9.23,1.5-13.81-.25-6.78-1.61-13.51-2.09-20.29-.4-5.69-3.36-9.23-7.95-12.13-4.84-3.06-9.48-6.47-14.08-9.89-11.38-8.48-20.9-18.34-26.06-32.08a16.56,16.56,0,0,0-11.41-10.39,15.76,15.76,0,0,1-5-2.6c-5.66-4.09-9.14-10-12.94-15.68-3.08-4.62-6.22-9.24-9.72-13.54s-6.27-4.54-11-1.44S491,351.63,488,356c-3.34,4.76-6.1,10.17-11.42,13-7.55,4-13.38,9.86-18.35,16.61a190.39,190.39,0,0,1-28.54,31c-6.58,5.75-13,11.72-19.46,17.58a7.39,7.39,0,0,0-2.61,6.18q.45,10,.59,20a11.19,11.19,0,0,1-.84,4.85c-2.07,4.44-4.4,8.75-6.66,13.11-4.53,8.75-9.46,17.31-12.27,26.86a25.86,25.86,0,0,0,.2,16.82A58.67,58.67,0,0,1,392,535.22c1.25,10.39,2.17,20.84,2.8,31.29.36,6.09-.33,12.2-3.87,17.52a5,5,0,0,0-.16,5.58c1.87,3.53,3.72,7.07,5.38,10.69,5.65,12.31,13.35,22.88,24.65,30.73A328.39,328.39,0,0,0,466,657.09c6,2.87,11.5,6.6,17.08,10.2a82.77,82.77,0,0,1,7.62,6.2c.61-.81,1.14-1.44,1.6-2.13,8.34-12.61,6.53-27.18-4.5-37.55-16-15-31.95-30-47.71-45.18-7.05-6.8-13.59-14.13-20.29-21.14,1-1.94,1.85-1.48,2.87-.49,7.4,7.2,14.85,14.35,22.25,21.55a298.89,298.89,0,0,0,34.32,28.94c5.18,3.71,10.6,7.08,16.08,10.71a7.3,7.3,0,0,0,.53-1.34c.52-9.72,1.12-19.42,1.5-29.14.36-9.18-4.57-15.77-11.14-21.35a380.39,380.39,0,0,1-57.68-61.81c-1.9-2.53-3.56-5.25-5.33-7.88l.77-.95a8.35,8.35,0,0,1,2.45,1.27c6.68,7.43,12.88,15.32,20,22.29C460,542.57,474,555.37,488,568.26c1.81,1.67,4.23,2.69,6.37,4,.57-.74.79-1,1-1.26,2.4-3.74,1.84-8,2.07-12.1.4-7.06.52-14.15,1-21.2A16.42,16.42,0,0,0,492,522.82c-7.77-6.39-15.58-12.8-22.79-19.8-14-13.65-25.2-29.68-36.6-45.49a15.56,15.56,0,0,1-1.22-2.61,6.4,6.4,0,0,1,2.95,1.76c2.92,3,5.79,6,8.69,9,13.67,14,27.42,28,41,42.09A27.72,27.72,0,0,0,496.48,515.22Z" transform="translate(-25.15 -29.11)"></path>
  <path d="M796.06,237.69c-.73,9.6-3.15,21.83-13,30.86-10.43,9.55-22.87,13.25-36.91,10.46a24.71,24.71,0,0,1-15.35-9.95c-3.78-5.14-7.93-10.12-10.92-15.7-5.52-10.32-3.93-21.05.39-31.32,1.2-2.86,4.27-5,6.61-7.3,6.46-6.44,14.5-9.43,23.37-10.73,7-1,14.16-1.67,21,.21C785.41,208.08,796.38,216.9,796.06,237.69Zm-37.49-20.45c-8-.65-14.41,3.06-20.88,6.74-5.77,3.27-7.78,8.78-6.85,14.67a34.94,34.94,0,0,0,17.1,25.46,14.45,14.45,0,0,0,13.63,1.05,29.9,29.9,0,0,0,13.32-10.92c4.52-6.52,5.88-14,6.55-21.69.44-5-1.92-8.33-5.77-10.81a22.67,22.67,0,0,0-6.77-3.05C765.53,217.89,762,217.7,758.57,217.24Z" transform="translate(-25.15 -29.11)"></path>
  <path d="M675.23,159.69a48.54,48.54,0,0,0-3.14,3.74c-5.63,8.13-11.13,16.34-16.81,24.44a49.29,49.29,0,0,1-5.55,6.37c-2.16,2.17-4.13,2.14-6.68.28-2.77-2-3.51-3.8-2-6.6a127.57,127.57,0,0,1,7.42-12.7c9.66-14,19.47-27.95,29.31-41.84a26.08,26.08,0,0,1,4.68-4.83c3.55-3,8.28-1.72,9.48,2.74a24.39,24.39,0,0,1,.57,9.13c-1,8.13-2.58,16.18-3.65,24.3-1,7.48-2.71,15-.23,22.52.18.55.3,1.12.5,1.67.93,2.53,2,2.84,3.56.62,3.72-5.29,7.17-10.77,10.77-16.13,4-6,8-12.05,12.25-17.89a16.44,16.44,0,0,1,5.16-4.12,4.27,4.27,0,0,1,5.33.72c1.56,1.54,2.5,3.48,1.41,5.64-2.18,4.28-4.28,8.62-6.84,12.68-10.72,17-21.61,33.9-32.39,50.86-.8,1.26-1.5,1.44-2.83.78a14.94,14.94,0,0,1-8.3-9.89,81.78,81.78,0,0,1-2.72-27.85c.39-6.39,1.63-12.73,2.29-19.11.18-1.74-.38-3.54-.6-5.32Z" transform="translate(-25.15 -29.11)"></path>
  <path d="M825.14,302.36l-13.74,5.89c2.54,6.58,5.09,13.12,7.58,19.68a52.58,52.58,0,0,1,1.63,5.22c.75,2.85,0,4.57-2.44,6.12s-4.34.56-5.73-1.2a90.64,90.64,0,0,1-6.81-9.8c-2.71-4.55-5.12-9.29-7.78-14.18L779.44,322c.36,1,.68,1.78,1,2.61,3.45,9.08,7.06,18.11,10.26,27.28a20.63,20.63,0,0,1,.77,8.47c-.23,2.46-1.75,3-4.22,2.46a10.14,10.14,0,0,1-7.78-6.28q-7.71-18.14-15.46-36.27a16.5,16.5,0,0,1-.74-2.63c-.84-3.49-.54-5,2.64-6.7,5.69-3,11.54-5.82,17.46-8.38,11-4.77,22.08-9.34,33.15-13.94a27,27,0,0,1,14.89-1.92,7,7,0,0,1,5.77,4.17c4.11,8.95,8.33,17.86,12.36,26.86,2,4.44,3.73,9,5.45,13.57.67,1.78,1.24,3.77-.4,5.38a6.12,6.12,0,0,1-6.22,1.57,8.76,8.76,0,0,1-5.84-4.69c-3.07-6-6-12-9.23-17.89C830.82,311.18,827.94,306.9,825.14,302.36Z" transform="translate(-25.15 -29.11)"></path>
  <path d="M393.86,126c5.4-1.24,10.78-2.54,16.19-3.71,3.39-.73,6.8-1.45,10.24-1.85,2.74-.32,4.35,1,5.28,3.59a4,4,0,0,1-2.19,5.26c-4.39,2.31-8.91,4.39-13.47,6.33-4,1.68-8.05,3-12.25,4.59,1.74,6.47,3.45,12.85,5.2,19.37,5.45-1.29,10.9-2.69,16.4-3.87,5.91-1.27,11.87-2.34,17.82-3.49a9.37,9.37,0,0,1,1.48-.19c5.6-.08,7.68,3.13,4.67,7.77a10.77,10.77,0,0,1-5.48,4.27c-13.41,3.79-26.9,7.31-40.41,10.74-4.28,1.08-6.31,0-7.76-4.19-2.05-5.85-3.83-11.8-5.43-17.79-3.26-12.19-6.36-24.41-9.42-36.65a24.52,24.52,0,0,1,.36-12.35c.78-3,2.32-5.05,5.4-5.94,9.53-2.78,19-5.68,28.56-8.41,4.37-1.25,8.81-2.27,13.25-3.29,2-.46,4.24-.77,5.8,1.1s1.36,4.39.53,6.62c-1,2.78-3.35,4.24-6.06,5.16-5.94,2-11.91,3.91-17.78,6.1-4.5,1.67-8.9,3.66-13.28,5.65a2.54,2.54,0,0,0-1.16,2.13C391.39,117.27,392.65,121.57,393.86,126Z" transform="translate(-25.15 -29.11)"></path><path d="M578.81,146.17c-4.11,0-7.13,2-9.95,4.44-3.21,2.78-6.34,5.64-9.64,8.3a18.27,18.27,0,0,1-4.74,2.71c-3.81,1.52-7.59-1.5-6.62-5.5a13.31,13.31,0,0,1,3.36-5.94c7.25-7.34,14.7-14.49,22.12-21.67Q582.13,120,591,111.62c1.56-1.47,3.35-2.68,5-4.06,3.23-2.68,6.46-5.38,9.65-8.12,3.9-3.35,11.59-2.8,14.75,1.23a6,6,0,0,1,1.08,3.22c.15,3.38,0,6.77.13,10.14.29,7.22.76,14.44,1,21.66.25,7.05.14,14.13.53,21.17a103.85,103.85,0,0,0,1.82,15,7.93,7.93,0,0,1-9.86,9.21c-1.76-.57-3-1.46-3.32-3.29-1.07-6.26-2.84-12.45-1.92-18.91.33-2.3-.57-4-2.69-4.78-5-1.77-10-3.52-15.09-5C587.74,147.93,583.25,147.15,578.81,146.17Zm26.64-6.27a40.5,40.5,0,0,0,.61-21.9,6.36,6.36,0,0,0-1.41.59c-5.14,4.54-10.33,9-15.33,13.72-1.58,1.47-1.14,2.67,1.18,3.39C595.38,137.21,600.34,138.48,605.45,139.9Z" transform="translate(-25.15 -29.11)"></path>
  <path d="M502.24,79.15a81.67,81.67,0,0,1,9.32.9,14.53,14.53,0,0,1,6.26,2.71,65.87,65.87,0,0,1,8.25,8.61,6.4,6.4,0,0,1-.48,8.22,6.9,6.9,0,0,1-8.06,1.23,10.08,10.08,0,0,1-1.65-1.1c-7.31-6-14.78-6.72-23-2.17-5,2.77-9.59,6-12.53,11.13-4.37,7.56-3.76,21.38,5.56,29.3a7.53,7.53,0,0,1,1.46,1.35c2.82,4.22,6.82,5.06,11.61,4.65a110.11,110.11,0,0,1,11.91.09A11.24,11.24,0,0,0,518,141.5c2.34-1.72,4.67-3.5,7.16-5s5.07-2.36,7.62-.26c1.82,1.49,2.47,5.73,1,8.42a16.39,16.39,0,0,1-4.5,5.54c-13.2,9.21-27.64,11.91-42.82,6.1-13.64-5.22-26.17-19.67-24.2-40.69,1.45-15.53,15.32-32.17,30.46-35.39A91.91,91.91,0,0,1,502.24,79.15Z" transform="translate(-25.15 -29.11)"></path>
  <path d="M613.71,785c0,2.49-.11,5,.06,7.47a3.9,3.9,0,0,0,1.3,2.19c4.43,4.19,7.87,8.92,9.43,15,.94,3.66.43,7-2,9.51A51.25,51.25,0,0,1,613,827c-8.63,5.38-18.43,7.91-28.11,10.65-.46.13-1.1.4-1.41.2-3.43-2.11-7.43-3.64-9-7.84a101.85,101.85,0,0,1-5.68-25.43,151,151,0,0,0-3.34-19.09c-1.9-8.14-1-10.61,6.77-13.68a133,133,0,0,1,17.67-6A19.42,19.42,0,0,1,613.71,785Zm-37,2.9c.66,3.39,1.3,6.79,2,10.18.36,1.83,1.57,2.35,3.13,1.6,5.87-2.86,11.94-5.42,17.47-8.85,4.73-2.95,3.39-10.83-1.8-13.14a16.68,16.68,0,0,0-12.33-.56C579.42,778.93,577.1,781.82,576.72,787.86Zm10,36c2.35-.35,4.48-.65,6.59-1,5.29-.83,10.4-2.17,14.79-5.44,2.57-1.91,4.13-4.46,3.68-7.68-.38-2.67-4.58-5.88-7.57-6.12-3.5-.28-6.93-.14-10.09,1.78-2.69,1.64-5.43,3.21-8.25,4.59-2.26,1.1-2.68,2.88-2.1,4.93C584.58,818,585.69,820.88,586.69,823.87Z" transform="translate(-25.15 -29.11)"></path>
  <path d="M491.6,820.68c0,7.61,0,14.93,0,22.25,0,2.84-.79,3.75-3.58,4.08a22.68,22.68,0,0,1-3.5.07c-2.17-.07-3.72-1.08-4.05-3.31a95.45,95.45,0,0,1-1.36-11.38q-.53-22-.64-43.95c0-5.77,2.41-8.36,7.91-9,4.53-.49,9.08-.92,13.64-1.1,4.39-.17,8.8-.12,13.2,0,10.87.43,19.14,11.52,12.88,23.08-2,3.78-5.54,6.79-8.51,10-2.64,2.9-2.72,3-.7,6.41,1.11,1.85,2,3.82,3.17,5.65,4.36,7,11,11.54,19.7,8.34.86-.31,1.74-.54,2.61-.81,3.22-1,4.33-.63,5.84,1.88s1.26,4.82-.93,6.77a20,20,0,0,1-12.38,5.29c-9.11.56-15.91-3.84-21.73-10.3-3.5-3.89-7.06-7.73-10.58-11.6a8.24,8.24,0,0,0-9.23-2.64A6.57,6.57,0,0,1,491.6,820.68Zm14.49-33.57c-3.29.24-6.3.25-9.22.75A10.5,10.5,0,0,0,492,790c-4.14,3.54-4.67,8.18-1.94,13.8,1.23,2.53,3.31,3.94,6,3.46a124.93,124.93,0,0,0,12.57-2.86,11,11,0,0,0,7.85-8.57,6.26,6.26,0,0,0-.64-4.15C513.66,787.79,509.84,787.07,506.09,787.11Z" transform="translate(-25.15 -29.11)"></path>
  <path d="M257,229.27c4.83,5.5,9.52,10.78,14.14,16.13,1.41,1.63,2.63,3.43,3.91,5.18a3.44,3.44,0,0,1-.29,4.78c-1.84,1.89-3.84,3.61-5.82,5.45-.77-.66-1.3-1.06-1.75-1.53q-22.28-22.95-44.54-45.91a31.22,31.22,0,0,1-2.61-3c-1.28-1.73-2.15-3.68-1.3-5.83,5.53-14,14.2-25.35,29.47-29.13,9.78-2.41,18.89.66,25.82,8.26,5.59,6.12,6.26,15.63,1.45,23.27-3.22,5.1-7.32,9.66-11.17,14.35C262,224,259.48,226.56,257,229.27Zm-3-40.36c-7.5,1.14-14.77,2.51-18.77,10.22-2.25,4.35-2.44,6.7.7,10.5,2.9,3.53,6.17,6.75,9.25,10.13,1.62,1.77,3.17,1.91,4.69-.06,4.47-5.79,9.24-11.38,13.29-17.44,3.8-5.69.39-12.16-6.42-13.17C255.83,189,254.91,189,254,188.91Z" transform="translate(-25.15 -29.11)"></path>
  <path d="M320.79,176.93c3.4,6.69,6.69,13.12,9.94,19.58a44.09,44.09,0,0,1,2,4.58c1.23,3.29.71,4.66-2.27,6.37-5.79,3.33-5.87,3.38-9.24-2.47q-15-26-29.86-52.08c-3.52-6.18-3.29-8.21,1.49-13.56,7.63-8.51,16.61-14.77,28.19-16.7,12.7-2.12,27.51,7.73,29.27,19.92,1,6.8-1.44,12.77-6.27,17.66-6.07,6.15-13.58,10.37-20.69,15.1C322.48,175.88,321.63,176.4,320.79,176.93Zm.91-40.32c-5.59-.18-11.34,1.48-15.61,6.91-1.87,2.37-2.78,4.9-1.47,7.62,2.34,4.85,5,9.55,7.52,14.3.82,1.53,2.11,1.94,3.51.84,6.21-4.85,12.61-9.5,18.47-14.74,3.66-3.26,3-8.41-.75-11.67C330.3,137.18,326.6,136.5,321.7,136.61Z" transform="translate(-25.15 -29.11)"></path>
  <path d="M418.41,826.69c8.18,2,16,3.71,23.78,5.81a26.08,26.08,0,0,1,7.77,3.65c2.06,1.42,1.71,3-.13,4.78a8.63,8.63,0,0,1-8.12,2.11c-10.44-2-20.89-4-31.26-6.4-6.12-1.39-7.09-2.76-6-8.75,2.8-14.84,5.93-29.62,9-44.41a17.45,17.45,0,0,1,1.61-4.18c3.22-6.32,5.48-7.64,12.51-6.41,10.49,1.83,20.95,3.89,31.39,6,4.23.87,5.53,2.4,5,4.88-.68,3.19-4.43,5.63-7.8,5.26-9.21-1-18.44-1.91-27.65-2.92-1.69-.18-2.31.3-2.51,2.07a51.37,51.37,0,0,1-1.62,8.06c-.5,1.8.05,2.28,1.72,2.66,6.14,1.38,12.26,2.83,18.32,4.49a6.35,6.35,0,0,1,3.55,2.66c1.48,2.57.42,5-2.49,5.46a47.34,47.34,0,0,1-9.67.34c-3.9-.2-7.78-.77-11.65-1.27-1.88-.25-2.93.16-3.12,2.31-.22,2.31-.8,4.59-1.25,6.87S418.89,824.33,418.41,826.69Z" transform="translate(-25.15 -29.11)"></path>
  <path d="M226.21,328.19c-.71,1.46-1.28,2.75-2,4-2.24,4.09-4.56,5.43-9.18,4.1a110.1,110.1,0,0,1-14.37-5.49c-10.52-4.69-20.93-9.63-31.4-14.43a26.8,26.8,0,0,0-3.76-1.27c-3.07-.88-5.73,0-7.23,2.76-1.93,3.56-3.51,7.31-5.36,10.91a40.58,40.58,0,0,1-3.73,6.18c-2.06,2.66-4.77,2.74-8.54.65-3-1.67-3.92-3.59-2.61-6.8q5.1-12.57,10.53-25c4.29-9.81,8.76-19.55,13.17-29.31,1.32-2.91,3.59-3.77,7.93-3.07a5.44,5.44,0,0,1,4.78,5.53,31.7,31.7,0,0,1-1.8,7.95c-1.2,3.53-2.87,6.9-4.1,10.43s-1,4.57,2.41,6.23c12.75,6.25,25.56,12.37,38.37,18.5,5,2.4,10.1,4.7,15.14,7.06A17.28,17.28,0,0,1,226.21,328.19Z" transform="translate(-25.15 -29.11)"></path>
  <path d="M629.87,765.37c0-12,9.46-23.46,21.84-26.92,5-1.41,9.78-1.51,14.4,1.31,3,1.86,3.52,4.65,1,7.3-1.68,1.8-3.83,2.08-6.17,2.06a23.19,23.19,0,0,0-16.76,6.51,8.74,8.74,0,0,0-2.54,8.22A5.11,5.11,0,0,0,648,768c6.86-1.73,13.65-3.77,20.52-5.43,8.53-2.07,20.74,1.27,22,11.51,1.14,9.13-2.54,19.85-12.35,25.1-2.34,1.24-4.63,2.59-7,3.82-7.65,4-18.36,2.35-24.57-3.73-2.51-2.46-3-4.4-1-8.3,1.29-2.5,3.88-3.08,7.21-1.91,3.66,1.28,7.34,2.51,11,3.89a7.19,7.19,0,0,0,7.25-1.29,24.24,24.24,0,0,0,8.53-12.31c.82-2.5.08-3.82-2.48-4.51a20.94,20.94,0,0,0-11.21.15,145.48,145.48,0,0,1-21.73,4c-4.15.45-8.15-1.47-11.5-4.14C629.58,772.35,630,768.76,629.87,765.37Z" transform="translate(-25.15 -29.11)"></path>
  <path d="M378.06,794.94l-27-11.8c-2.5,5.2-5,10.42-7.54,15.59a42.88,42.88,0,0,1-4.11,7.36,7.49,7.49,0,0,1-4.55,2.42,3.27,3.27,0,0,1-3.63-4.48c2.59-7.72,5.18-15.44,8.21-23,4.07-10.14,8.54-20.12,12.87-30.14a6.7,6.7,0,0,1,4.32-4.12c3.94-1.27,5.59.55,6.33,4.33a9.16,9.16,0,0,1-.73,4.59c-2.09,5.68-4.34,11.29-6.63,17.2l26.85,11.77c2.37-4.81,4.63-9.41,6.92-14,.89-1.79,1.77-3.58,2.78-5.3,1.61-2.71,3.62-3.16,6.82-1.65,2.54,1.2,3.34,2.88,2.23,5.74-2.95,7.63-5.91,15.26-9.12,22.78-4,9.38-8.24,18.65-12.41,28a23.3,23.3,0,0,1-2,3.47,4.55,4.55,0,0,1-5.66,1.85c-2.28-.91-3.37-2.62-2.61-5.21,1.6-5.49,3.46-10.9,5.28-16.32C375.76,801,376.91,798.08,378.06,794.94Z" transform="translate(-25.15 -29.11)"></path>
  <path d="M253.36,284.42c0,3.4-3.55,5.49-7,3.4-5.48-3.3-10.93-6.69-16.22-10.3q-20.34-13.89-40.52-28c-5.39-3.78-5.4-4.89-1.35-10.07,2.32-3,3.37-3.32,6.43-1.12q27.39,19.74,54.66,39.65C251.36,279.41,253.24,281.14,253.36,284.42Z" transform="translate(-25.15 -29.11)"></path>
  <path d="M584.7,297.87c-2.77-1.08-5.44-1.67-7.53-3.1a8.39,8.39,0,0,1-3.36-4.88c-1.22-7.43-.43-14.57,4.56-20.73,3.35-4.12,8-5,12.64-2.32,9.84,5.79,11,21,1.9,27.85C590.69,296.36,587.56,296.81,584.7,297.87ZM592.58,281a27.91,27.91,0,0,0-.72-4.6,6.33,6.33,0,0,0-5-4.68c-2.38-.35-3.57,1.64-4.76,3.4a13.39,13.39,0,0,0-2.18,11.06c.47,2,.68,4.14,2.94,4.69a6.82,6.82,0,0,0,7.07-2A10.94,10.94,0,0,0,592.58,281Z" transform="translate(-25.15 -29.11)"></path>
  <path d="M301.66,759.1c-4.11.07-6.93-1.3-9-4.26-.86-1.2-2.14-2.11-3-3.33-.64-1-1.37-2.3-1.2-3.33,1-5.82,5.17-12.7,12.9-12.37a11.73,11.73,0,0,1,11.52,11.63A11.55,11.55,0,0,1,301.66,759.1Z" transform="translate(-25.15 -29.11)"></path>
  <path d="M735.1,737.46c0,7.16-5.27,12.9-12.09,12.55s-11.35-5.1-11.55-12.06c-.17-6.1,5.61-11.55,11.84-11.54C728.31,726.41,735.1,732.77,735.1,737.46Z" transform="translate(-25.15 -29.11)"></path>
  <path d="M351.89,272v5.89c2.29,0,4.66,0,7,0a7.92,7.92,0,0,1,2.95.28c.87.39,2,1.29,2.05,2s-1.11,1.91-1.91,2.08c-3.24.68-6.54,1-10,1.55v7.36q6,.35,11.9.71c1.66.1,3.87.15,4,2.08.16,2.21-2,2.94-3.91,3-5.24.07-10.49-.05-15.73-.16-2,0-2.89-1.22-2.88-3.25,0-7.25-.06-14.49,0-21.73.06-4.46,2-6.34,6.47-6.39,4.58-.06,9.16,0,13.74,0,1.56,0,3.36.09,3.33,2.09s-1.55,2.89-3.39,3.06c-2.73.24-5.47.3-8.19.56C355.6,271.29,353.83,271.69,351.89,272Z" transform="translate(-25.15 -29.11)"></path>
  <path d="M644.67,270.6c-1.41,0-2.83,0-4.25,0s-2.76-.14-2.8,1.85c0,1.82-.45,3.83,2.07,4.39,1.93.42,3.88.72,5.82,1.08,4.84.9,8.57,6.5,8.09,12.17-.36,4.18-4.19,7-9.39,7.1-4.33.09-8.48-.4-12.12-3-2.39-1.7-3.56-3.95-2.44-5.07,1.9-1.89,3.49-.19,5.3.61a27.06,27.06,0,0,0,7.52,2.09,4.26,4.26,0,0,0,4.42-3.87,5.27,5.27,0,0,0-4.56-5.34c-2.49-.17-5-.32-7.47-.51-2-.14-2.94-1.14-3.07-3.18-.17-2.63-.51-5.26-.87-7.87-.52-3.75.74-5.64,4.48-5.74,5-.13,10.1,0,15.14.23,1.24.05,3,.11,3.09,2.17s-1.51,2.53-3,2.69a54.17,54.17,0,0,1-6,.05Z" transform="translate(-25.15 -29.11)"></path>
  <path d="M393,296.6c-6,0-9.87-2.52-11.67-7a3,3,0,0,1,1.13-3.91c1.42-1.09,2.68-.51,3.75.62.85.9,1.62,1.88,2.4,2.85,2.49,3.06,4.56,3.06,7.9,1.25,1.34-.72,2.28-2.15,3.41-3.26-1.46-1.09-2.78-2.53-4.42-3.21-2.89-1.2-6-1.83-9-2.88s-5.15-2.94-5.47-5.92c-.34-3.28,1.72-6,4.33-7.7a14.84,14.84,0,0,1,13.11-1.9,9.5,9.5,0,0,1,3.94,2.84c.62.71.43,2.12.61,3.21-1.29.17-2.84.88-3.83.41a12.51,12.51,0,0,0-8.18-1.35,5.55,5.55,0,0,0-3,1.89,2.48,2.48,0,0,0,1.4,4.11c2.91.86,6,1.23,8.79,2.34a15.85,15.85,0,0,1,6.09,4c1.88,2.19,1.88,5,.13,7.63C401.57,294.88,397.67,296.92,393,296.6Z" transform="translate(-25.15 -29.11)"></path>
  <path d="M547.63,291.3c2.46.24,4.32.46,6.19.59s3.84.06,5.72.34c.73.1,2,1.2,1.9,1.39-.46,1.12-1.22,3-1.92,3q-9.46.25-18.93-.12c-1.94-.08-2.73-2.22-1.31-4,3.37-4.2,7-8.17,10.62-12.18,1.21-1.35,2.72-2.45,3.89-3.84a3.52,3.52,0,0,0,.2-4.81c-1.4-1.67-3.15-1.25-4.68-.14s-3.08,2.51-4.61,3.78c-1.32,1.09-2.69,1.39-4,0s-1.34-3,.25-4.31A46.45,46.45,0,0,1,547,266.3c3.68-2.12,8.66-1,11.79,1.8,2.37,2.1,2.62,7.1.24,10.18-2.84,3.66-6.2,6.92-9.31,10.36C549.13,289.34,548.58,290.12,547.63,291.3Z" transform="translate(-25.15 -29.11)"></path>
  <path d="M432,264.4c3.49,0,7,.11,10.49,0,2-.08,3,1,2.92,2.57a4.09,4.09,0,0,1-2.16,2.75c-1.11.54-2.59.38-3.91.41-4.4.08-4.69.36-4.72,4.67,0,6.16,0,12.32-.17,18.48,0,1-.64,2.82-1.26,2.95-1.79.38-3.62-.33-3.76-2.52-.27-4.55-.32-9.12-.42-13.68-.05-2.24,0-4.49,0-6.74s-1.25-3.11-3.31-3.15c-1.74,0-3.49,0-5.24-.08s-3-1-3-3,1.36-2.55,3-2.57c3.83-.05,7.66,0,11.49,0Z" transform="translate(-25.15 -29.11)"></path><path d="M617.09,278.78q0,7.59,0,15.18c0,2-.9,3.24-2.92,3.26a2.94,2.94,0,0,1-3.23-3.3c.08-3.64.46-7.27.56-10.91.12-4,0-7.95.11-11.93,0-1.39-.18-3,.4-4.12a4.15,4.15,0,0,1,3-1.89,2.32,2.32,0,0,1,2.62,2.75c-.22,3.64-.06,7.3-.06,11Z" transform="translate(-25.15 -29.11)"></path>
</svg>